<svg width="14" height="18" viewBox="0 0 14 18" fill="none" xmlns="http://www.w3.org/2000/svg">
<g clip-path="url(#clip0_63_2374)">
<path fill-rule="evenodd" clip-rule="evenodd" d="M7 0C4.93934 0 3.25598 1.68336 3.25598 3.74401C3.25598 5.80467 4.93934 7.48803 7 7.48803C9.06066 7.48803 10.744 5.80467 10.744 3.74401C10.744 1.68336 9.06066 0 7 0ZM4.21375 3.74401C4.21375 2.20578 5.46176 0.957771 7 0.957771C8.53823 0.957771 9.78624 2.20578 9.78624 3.74401C9.78624 5.28225 8.53823 6.53026 7 6.53026C5.46176 6.53026 4.21375 5.28225 4.21375 3.74401Z" fill="black"/>
<path fill-rule="evenodd" clip-rule="evenodd" d="M7 9.78125C3.13989 9.78125 0.00537109 12.9158 0.00537109 16.7759V17.7046H13.9946V16.7759C13.9946 12.9158 10.8601 9.78125 7 9.78125ZM0.934119 16.7759C0.934119 13.4382 3.66232 10.71 7 10.71C10.3377 10.71 13.0659 13.4382 13.0659 16.7759H0.934119Z" fill="black"/>
</g>
<defs>
<clipPath id="clip0_63_2374">
<rect width="14" height="17.7333" fill="white"/>
</clipPath>
</defs>
</svg>
