<?xml version="1.0" encoding="UTF-8"?>
<!DOCTYPE svg PUBLIC "-//W3C//DTD SVG 1.1//EN" "http://www.w3.org/Graphics/SVG/1.1/DTD/svg11.dtd">
<!-- Creator: CorelDRAW 2019 (64-Bit) -->
<svg xmlns="http://www.w3.org/2000/svg" xml:space="preserve" width="0.51074in" height="0.156917in" version="1.1" style="shape-rendering:geometricPrecision; text-rendering:geometricPrecision; image-rendering:optimizeQuality; fill-rule:evenodd; clip-rule:evenodd"
viewBox="0 0 50.54 15.53"
 xmlns:xlink="http://www.w3.org/1999/xlink"
 xmlns:xodm="http://www.corel.com/coreldraw/odm/2003">
 <defs>
  <style type="text/css">
   <![CDATA[
    .fil0 {fill:black}
    .fil1 {fill:white}
   ]]>
  </style>
 </defs>
 <g id="Layer_x0020_1">
  <metadata id="CorelCorpID_0Corel-Layer"/>
  <rect class="fil0" x="0" width="50.54" height="15.53" rx="8.71" ry="7.76"/>
  <g id="_2731634546368">
   <path class="fil1" d="M12.24 7.41c-0.01,-1.12 0.92,-1.67 0.96,-1.7 -0.53,-0.77 -1.34,-0.87 -1.63,-0.88 -0.69,-0.07 -1.35,0.41 -1.7,0.41 -0.36,0 -0.89,-0.4 -1.48,-0.39 -0.75,0.01 -1.44,0.44 -1.83,1.11 -0.79,1.37 -0.2,3.38 0.56,4.49 0.38,0.54 0.82,1.15 1.4,1.13 0.57,-0.02 0.78,-0.36 1.46,-0.36 0.68,0 0.88,0.36 1.47,0.35 0.61,-0.01 0.99,-0.54 1.36,-1.09 0.44,-0.62 0.61,-1.23 0.62,-1.26 -0.01,-0 -1.18,-0.45 -1.19,-1.8l0 0zm-1.12 -3.31c0.31,-0.38 0.51,-0.9 0.46,-1.43 -0.44,0.02 -0.99,0.31 -1.31,0.68 -0.28,0.33 -0.53,0.87 -0.47,1.37 0.5,0.04 1,-0.25 1.32,-0.63l0 0z"/>
   <path class="fil1" d="M20.45 11.5l-0.79 0 -0.43 -1.36 -1.51 0 -0.41 1.36 -0.77 0 1.5 -4.64 0.92 0 1.5 4.64 0 0zm-1.36 -1.94l-0.39 -1.21c-0.04,-0.12 -0.12,-0.42 -0.23,-0.87l-0.01 0c-0.05,0.2 -0.12,0.49 -0.22,0.87l-0.39 1.21 1.25 0zm5.19 0.22c0,0.57 -0.15,1.02 -0.46,1.35 -0.28,0.29 -0.62,0.44 -1.03,0.44 -0.44,0 -0.76,-0.16 -0.96,-0.47l0 1.76 -0.74 0 0 -3.6c0,-0.36 -0.01,-0.72 -0.03,-1.1l0.65 0 0.04 0.53 0.01 0c0.25,-0.4 0.62,-0.6 1.13,-0.6 0.4,0 0.72,0.16 0.99,0.47 0.26,0.31 0.4,0.72 0.4,1.23zm-0.76 0.03c0,-0.33 -0.07,-0.59 -0.22,-0.81 -0.16,-0.22 -0.38,-0.33 -0.65,-0.33 -0.18,0 -0.35,0.06 -0.5,0.18 -0.15,0.12 -0.25,0.28 -0.29,0.48 -0.02,0.07 -0.03,0.15 -0.03,0.23l0 0.56c0,0.24 0.07,0.45 0.22,0.62 0.15,0.17 0.34,0.25 0.58,0.25 0.28,0 0.5,-0.11 0.65,-0.32 0.16,-0.22 0.23,-0.5 0.23,-0.85l0 0zm4.61 -0.03c0,0.57 -0.15,1.02 -0.46,1.35 -0.28,0.29 -0.62,0.44 -1.03,0.44 -0.44,0 -0.76,-0.16 -0.96,-0.47l0 1.76 -0.74 0 0 -3.6c0,-0.36 -0.01,-0.72 -0.03,-1.1l0.65 0 0.04 0.53 0.01 0c0.25,-0.4 0.62,-0.6 1.13,-0.6 0.39,0 0.72,0.16 0.99,0.47 0.26,0.31 0.4,0.72 0.4,1.23zm-0.76 0.03c0,-0.33 -0.07,-0.59 -0.22,-0.81 -0.16,-0.22 -0.38,-0.33 -0.65,-0.33 -0.18,0 -0.35,0.06 -0.5,0.18 -0.15,0.12 -0.25,0.28 -0.29,0.48 -0.02,0.09 -0.04,0.17 -0.04,0.23l0 0.56c0,0.24 0.08,0.45 0.22,0.62 0.15,0.17 0.34,0.25 0.58,0.25 0.28,0 0.5,-0.11 0.65,-0.32 0.16,-0.22 0.23,-0.5 0.23,-0.85zm5.06 0.39c0,0.4 -0.14,0.72 -0.41,0.96 -0.3,0.27 -0.72,0.41 -1.27,0.41 -0.5,0 -0.9,-0.1 -1.2,-0.29l0.17 -0.62c0.33,0.19 0.68,0.29 1.07,0.29 0.28,0 0.5,-0.06 0.65,-0.19 0.16,-0.13 0.23,-0.3 0.23,-0.51 0,-0.19 -0.07,-0.35 -0.19,-0.48 -0.13,-0.13 -0.34,-0.25 -0.64,-0.36 -0.81,-0.3 -1.22,-0.75 -1.22,-1.33 0,-0.38 0.14,-0.69 0.43,-0.94 0.29,-0.24 0.67,-0.37 1.14,-0.37 0.42,0 0.77,0.07 1.05,0.22l-0.19 0.61c-0.26,-0.14 -0.56,-0.21 -0.89,-0.21 -0.26,0 -0.47,0.06 -0.62,0.19 -0.12,0.11 -0.19,0.25 -0.19,0.42 0,0.18 0.07,0.34 0.21,0.45 0.12,0.11 0.35,0.23 0.67,0.36 0.4,0.16 0.69,0.35 0.88,0.56 0.19,0.22 0.28,0.48 0.28,0.8l0 0zm2.47 -1.49l-0.82 0 0 1.62c0,0.41 0.14,0.62 0.43,0.62 0.13,0 0.24,-0.01 0.33,-0.03l0.02 0.56c-0.15,0.05 -0.34,0.08 -0.58,0.08 -0.29,0 -0.52,-0.09 -0.69,-0.27 -0.17,-0.18 -0.25,-0.48 -0.25,-0.9l0 -1.69 -0.49 0 0 -0.56 0.49 0 0 -0.61 0.73 -0.22 0 0.83 0.82 0 0 0.56zm3.69 1.09c0,0.51 -0.15,0.94 -0.44,1.27 -0.31,0.34 -0.72,0.51 -1.23,0.51 -0.49,0 -0.88,-0.16 -1.18,-0.49 -0.29,-0.33 -0.44,-0.74 -0.44,-1.23 0,-0.52 0.15,-0.94 0.45,-1.27 0.3,-0.33 0.71,-0.5 1.22,-0.5 0.49,0 0.89,0.16 1.18,0.49 0.29,0.32 0.43,0.72 0.43,1.22zm-0.77 0.02c0,-0.31 -0.07,-0.57 -0.2,-0.79 -0.16,-0.27 -0.38,-0.4 -0.67,-0.4 -0.3,0 -0.53,0.13 -0.68,0.4 -0.13,0.22 -0.2,0.49 -0.2,0.8 0,0.31 0.07,0.57 0.2,0.79 0.16,0.27 0.39,0.4 0.68,0.4 0.28,0 0.51,-0.14 0.67,-0.41 0.14,-0.23 0.21,-0.49 0.21,-0.8l0 0zm3.19 -1.01c-0.08,-0.01 -0.15,-0.02 -0.23,-0.02 -0,0 -0,0 -0,0 -0.26,0 -0.46,0.1 -0.61,0.3 -0.12,0.17 -0.19,0.39 -0.19,0.66l0 1.76 -0.74 0 0 -2.29c0,-0.02 0,-0.03 0,-0.04 0,-0.34 -0.01,-0.68 -0.02,-1.01l0.65 0 0.03 0.64 0.02 0c0.08,-0.22 0.2,-0.4 0.37,-0.53 0.16,-0.12 0.34,-0.18 0.54,-0.18 0.07,0 0.13,0.01 0.19,0.01l0 0.71 -0 0zm3.33 0.86c0,0.01 0,0.02 0,0.03 0,0.1 -0.01,0.21 -0.03,0.31l-2.23 -0c0.01,0.33 0.12,0.58 0.32,0.76 0.19,0.16 0.43,0.23 0.73,0.23 0.33,0 0.63,-0.05 0.9,-0.16l0.12 0.52c-0.32,0.14 -0.69,0.21 -1.12,0.21 -0.52,0 -0.93,-0.15 -1.22,-0.46 -0.3,-0.31 -0.44,-0.72 -0.44,-1.23 0,-0.5 0.14,-0.92 0.41,-1.26 0.29,-0.36 0.68,-0.54 1.17,-0.54 0.48,0 0.85,0.18 1.1,0.54 0.2,0.28 0.29,0.64 0.29,1.05l0 0zm-0.71 -0.19c0.01,-0.22 -0.04,-0.41 -0.14,-0.57 -0.13,-0.21 -0.33,-0.31 -0.59,-0.31 -0.24,0 -0.44,0.1 -0.59,0.3 -0.12,0.16 -0.2,0.35 -0.22,0.58l1.55 0 0 0z"/>
   <path class="fil1" d="M44 4.46l-1.1 0c0.01,0.31 0.21,0.49 0.52,0.49 0.16,0 0.31,-0.03 0.44,-0.08l0.06 0.25c-0.16,0.07 -0.34,0.1 -0.55,0.1 -0.51,0 -0.82,-0.32 -0.82,-0.83 0,-0.5 0.31,-0.88 0.78,-0.88 0.42,0 0.68,0.31 0.68,0.78 0,0.01 0,0.02 0,0.03 0,0.05 -0,0.09 -0.01,0.14l-0 0z"/>
   <path class="fil1" d="M42.02 5.19l-0.37 0 0 -0.94c0,-0.29 -0.11,-0.44 -0.33,-0.44 -0.19,0 -0.37,0.13 -0.37,0.39l0 0.99 -0.37 0 0 -2.4 0.37 0 0 0.99 0.01 0c0.12,-0.18 0.28,-0.27 0.49,-0.27 0.35,0 0.56,0.27 0.56,0.7l0 0.98 0 0z"/>
   <path class="fil1" d="M40.09 3.82l-0.4 0 0 0.8c0,0.2 0.07,0.31 0.21,0.31 0.06,0 0.12,-0.01 0.16,-0.02l0.01 0.28c-0.07,0.03 -0.17,0.04 -0.28,0.04 -0.29,0 -0.46,-0.16 -0.46,-0.58l0 -0.83 -0.24 0 0 -0.27 0.24 0 0 -0.3 0.36 -0.11 0 0.41 0.4 0 0 0.27 0 0z"/>
   <path class="fil1" d="M37.63 5.19l-0.37 0 0 -0.94c0,-0.29 -0.11,-0.44 -0.33,-0.44 -0.22,0 -0.37,0.19 -0.37,0.4l0 0.98 -0.37 0 0 -1.18c0,-0.15 -0,-0.3 -0.01,-0.47l0.32 -0 0.02 0.25 0.01 0c0.1,-0.18 0.3,-0.29 0.52,-0.29 0.35,0 0.57,0.26 0.57,0.69l0 0.99 0 0z"/>
   <path class="fil1" d="M34.84 5.23c-0.48,0 -0.79,-0.36 -0.79,-0.85 0,-0.51 0.32,-0.87 0.82,-0.87 0.47,0 0.79,0.34 0.79,0.84 0,0.51 -0.33,0.87 -0.82,0.87z"/>
   <path class="fil1" d="M32.21 5.19l-0.02 -0.26 -0.01 0c-0.11,0.2 -0.28,0.3 -0.53,0.3 -0.4,0 -0.69,-0.35 -0.69,-0.84 0,-0.51 0.3,-0.88 0.72,-0.88 0.22,0 0.38,0.07 0.46,0.22l0.01 -0 0 -0.94 0.37 0 0 1.96c0,0.16 0,0.31 0.01,0.44l-0.33 0z"/>
   <path class="fil1" d="M30.13 5.19l-0.03 -0.19 -0.01 -0c-0.11,0.15 -0.27,0.23 -0.48,0.23 -0.29,0 -0.5,-0.21 -0.5,-0.48 0,-0.41 0.35,-0.62 0.96,-0.62l0 -0.03c0,-0.22 -0.11,-0.33 -0.34,-0.33 -0.16,0 -0.3,0.04 -0.43,0.12l-0.07 -0.24c0.15,-0.1 0.34,-0.14 0.56,-0.14 0.43,0 0.65,0.23 0.65,0.68l0 0.61c0,0.17 0.01,0.29 0.02,0.39l-0.33 0 0 0z"/>
   <path class="fil1" d="M27.86 5.23c-0.48,0 -0.79,-0.36 -0.79,-0.85 0,-0.51 0.32,-0.87 0.82,-0.87 0.47,0 0.79,0.34 0.79,0.84 0,0.51 -0.33,0.87 -0.82,0.87z"/>
   <polygon class="fil1" points="26.53,5.19 26.17,5.19 26.17,2.79 26.53,2.79 26.53,5.19 "/>
   <path class="fil1" d="M25.52 5.19l-0.37 0 0 -0.94c0,-0.29 -0.11,-0.44 -0.33,-0.44 -0.22,0 -0.37,0.19 -0.37,0.4l0 0.98 -0.37 0 0 -1.18c0,-0.15 -0,-0.3 -0.01,-0.47l0.32 -0 0.02 0.25 0.01 0c0.1,-0.18 0.3,-0.29 0.52,-0.29 0.35,0 0.57,0.26 0.57,0.69l-0 0.99 0 0z"/>
   <path class="fil1" d="M23.63 3.55l-0.51 1.65 -0.34 0 -0.21 -0.71c-0.05,-0.17 -0.1,-0.35 -0.13,-0.53l-0.01 -0c-0.03,0.18 -0.08,0.36 -0.13,0.53l-0.23 0.71 -0.34 0 -0.48 -1.65 0.38 0 0.19 0.78c0.04,0.19 0.08,0.36 0.11,0.53l0.01 0c0.03,-0.14 0.07,-0.31 0.14,-0.52l0.23 -0.79 0.3 0 0.22 0.77c0.05,0.19 0.1,0.37 0.13,0.54l0.01 0c0.02,-0.17 0.06,-0.35 0.11,-0.54l0.2 -0.77 0.36 -0z"/>
   <path class="fil1" d="M20.07 5.23c-0.48,0 -0.79,-0.36 -0.79,-0.85 0,-0.51 0.32,-0.87 0.82,-0.87 0.47,0 0.79,0.34 0.79,0.84 0,0.51 -0.33,0.87 -0.82,0.87z"/>
   <path class="fil1" d="M17.5 5.21c-0.21,0 -0.39,-0.01 -0.53,-0.03l0 -2.24c0.2,-0.03 0.41,-0.05 0.62,-0.05 0,0 0.01,0 0.01,0 0.85,0 1.25,0.42 1.25,1.1 0,0.79 -0.46,1.22 -1.34,1.22l0 0z"/>
   <path class="fil0" d="M17.64 3.18c-0.11,0 -0.21,0.01 -0.29,0.02l0 1.71c0.04,0.01 0.13,0.01 0.25,0.01 0.56,0 0.88,-0.32 0.88,-0.91 0,-0.53 -0.29,-0.83 -0.83,-0.83z"/>
   <path class="fil0" d="M43.73 4.18c0,-0.25 -0.13,-0.43 -0.36,-0.43 -0.21,0 -0.38,0.18 -0.4,0.43l0.76 0z"/>
   <path class="fil0" d="M34.85 3.78c-0.26,0 -0.43,0.25 -0.43,0.59 0,0.34 0.17,0.59 0.43,0.59 0.26,0 0.43,-0.26 0.43,-0.59 0,-0.34 -0.17,-0.59 -0.43,-0.59l0 0z"/>
   <path class="fil0" d="M32.15 4.22c0,-0.23 -0.15,-0.43 -0.39,-0.43 -0.27,0 -0.44,0.24 -0.44,0.58 0,0.33 0.17,0.56 0.43,0.56 0.23,0 0.39,-0.2 0.39,-0.44l0 -0.27 0 0z"/>
   <path class="fil0" d="M20.08 3.78c-0.26,0 -0.43,0.25 -0.43,0.59 0,0.34 0.17,0.59 0.43,0.59 0.26,0 0.43,-0.26 0.43,-0.59 0,-0.34 -0.17,-0.59 -0.43,-0.59l0 0z"/>
   <path class="fil0" d="M27.88 3.78c-0.26,0 -0.43,0.25 -0.43,0.59 0,0.34 0.17,0.59 0.43,0.59 0.26,0 0.43,-0.26 0.43,-0.59 0,-0.34 -0.17,-0.59 -0.43,-0.59l0 0z"/>
   <path class="fil0" d="M29.97 4.4c-0.41,0 -0.61,0.1 -0.61,0.33 0,0.17 0.11,0.26 0.25,0.26 0.19,0 0.36,-0.14 0.36,-0.33l0 -0.25z"/>
  </g>
 </g>
</svg>
