<svg width="112" height="35" viewBox="0 0 112 35" fill="none" xmlns="http://www.w3.org/2000/svg">
<path d="M91.9818 0H19.1528C8.575 0 0 7.63972 0 17.0638V17.0858C0 26.5099 8.575 34.1496 19.1528 34.1496H91.9818C102.56 34.1496 111.135 26.5099 111.135 17.0858V17.0638C111.135 7.63972 102.56 0 91.9818 0Z" fill="black"/>
<path fill-rule="evenodd" clip-rule="evenodd" d="M26.9153 16.3693C26.8933 13.9065 28.9383 12.697 29.0263 12.6311C27.8608 10.9379 26.0797 10.718 25.442 10.696C23.9247 10.5421 22.4734 11.5976 21.7038 11.5976C20.9122 11.5976 19.7467 10.718 18.4494 10.74C16.8002 10.762 15.2829 11.7075 14.4253 13.1808C12.6881 16.1934 13.9855 20.6132 15.6567 23.0541C16.4923 24.2415 17.4598 25.5828 18.7352 25.5389C19.9886 25.4949 20.4504 24.7473 21.9457 24.7473C23.441 24.7473 23.8808 25.5389 25.1781 25.5169C26.5195 25.4949 27.3551 24.3295 28.1687 23.12C29.1362 21.7567 29.5101 20.4153 29.532 20.3494C29.5101 20.3494 26.9373 19.3598 26.9153 16.3913V16.3693ZM24.4525 9.09078C25.1342 8.25518 25.5739 7.11173 25.464 5.94629C24.4965 5.99027 23.287 6.62796 22.5834 7.44157C21.9677 8.16722 21.4179 9.35465 21.5499 10.4541C22.6494 10.5421 23.7488 9.90439 24.4525 9.06879V9.09078Z" fill="white"/>
<path fill-rule="evenodd" clip-rule="evenodd" d="M44.9663 25.278H43.2291L42.2836 22.2874H38.9632L38.0616 25.278H36.3684L39.6669 15.0749H41.6899L44.9883 25.278H44.9663ZM41.9757 21.012L41.1182 18.3513C41.0302 18.0874 40.8543 17.4277 40.6124 16.4382H40.5904C40.4805 16.878 40.3265 17.5157 40.1066 18.3513L39.2491 21.012H41.9977H41.9757ZM53.3883 21.4958C53.3883 22.7492 53.0584 23.7387 52.3767 24.4643C51.761 25.102 51.0134 25.4319 50.1118 25.4319C49.1443 25.4319 48.4406 25.0801 48.0008 24.3984V28.2685H46.3736V20.3523C46.3736 19.5607 46.3516 18.7691 46.3077 17.9335H47.737L47.8249 19.0989H47.8469C48.3967 18.2193 49.2103 17.7796 50.3317 17.7796C51.2113 17.7796 51.915 18.1314 52.5087 18.8131C53.0804 19.4947 53.3883 20.3963 53.3883 21.5178V21.4958ZM51.7171 21.5617C51.7171 20.8361 51.5631 20.2644 51.2333 19.7806C50.8815 19.2968 50.3977 19.0549 49.804 19.0549C49.4082 19.0549 49.0343 19.1869 48.7045 19.4508C48.3747 19.7146 48.1548 20.0665 48.0668 20.5062C48.0228 20.6602 48.0008 20.8361 48.0008 21.012V22.2434C48.0008 22.7712 48.1548 23.2329 48.4846 23.6068C48.8145 23.9806 49.2323 24.1565 49.76 24.1565C50.3757 24.1565 50.8595 23.9146 51.1893 23.4528C51.5411 22.9691 51.6951 22.3534 51.6951 21.5837L51.7171 21.5617ZM61.8542 21.4958C61.8542 22.7492 61.5243 23.7387 60.8427 24.4643C60.227 25.102 59.4793 25.4319 58.5778 25.4319C57.6102 25.4319 56.9066 25.0801 56.4668 24.3984V28.2685H54.8396V20.3523C54.8396 19.5607 54.8176 18.7691 54.7736 17.9335H56.2029L56.2909 19.0989H56.3129C56.8626 18.2193 57.6762 17.7796 58.7977 17.7796C59.6552 17.7796 60.3809 18.1314 60.9746 18.8131C61.5463 19.4947 61.8542 20.3963 61.8542 21.5178V21.4958ZM60.183 21.5617C60.183 20.8361 60.0291 20.2644 59.6992 19.7806C59.3474 19.2968 58.8636 19.0549 58.2699 19.0549C57.8741 19.0549 57.5003 19.1869 57.1704 19.4508C56.8406 19.7146 56.6207 20.0665 56.5327 20.5062C56.4888 20.7042 56.4448 20.8801 56.4448 21.012V22.2434C56.4448 22.7712 56.6207 23.2329 56.9286 23.6068C57.2584 23.9806 57.6762 24.1565 58.2039 24.1565C58.8196 24.1565 59.3034 23.9146 59.6333 23.4528C59.9851 22.9691 60.139 22.3534 60.139 21.5837L60.183 21.5617ZM71.3096 22.4193C71.3096 23.2989 71.0018 24.0026 70.4081 24.5303C69.7484 25.124 68.8248 25.4319 67.6154 25.4319C66.5159 25.4319 65.6364 25.212 64.9767 24.7942L65.3505 23.4308C66.0762 23.8486 66.8458 24.0685 67.7034 24.0685C68.3191 24.0685 68.8028 23.9366 69.1327 23.6507C69.4845 23.3649 69.6384 22.9911 69.6384 22.5293C69.6384 22.1115 69.4845 21.7596 69.2206 21.4738C68.9348 21.1879 68.473 20.924 67.8133 20.6822C66.0322 20.0225 65.1306 19.033 65.1306 17.7576C65.1306 16.922 65.4385 16.2403 66.0762 15.6906C66.7139 15.1628 67.5495 14.877 68.583 14.877C69.5065 14.877 70.2761 15.0309 70.8918 15.3607L70.474 16.7021C69.9023 16.3942 69.2426 16.2403 68.517 16.2403C67.9453 16.2403 67.4835 16.3722 67.1536 16.6581C66.8898 16.9 66.7358 17.2078 66.7358 17.5817C66.7358 17.9775 66.8898 18.3293 67.1976 18.5712C67.4615 18.8131 67.9672 19.0769 68.6709 19.3628C69.5505 19.7146 70.1882 20.1324 70.606 20.5942C71.0238 21.078 71.2217 21.6497 71.2217 22.3534L71.3096 22.4193ZM76.741 19.1429H74.9379V22.7052C74.9379 23.6068 75.2457 24.0685 75.8834 24.0685C76.1693 24.0685 76.4112 24.0465 76.6091 24.0026L76.6531 25.234C76.3232 25.3439 75.9054 25.4099 75.3777 25.4099C74.74 25.4099 74.2342 25.212 73.8604 24.8162C73.4866 24.4204 73.3107 23.7607 73.3107 22.8371V19.1209H72.2332V17.8895H73.3107V16.5482L74.9159 16.0644V17.8895H76.719V19.1209L76.741 19.1429ZM84.8551 21.5398C84.8551 22.6612 84.5253 23.6068 83.8876 24.3324C83.2059 25.08 82.3044 25.4539 81.1829 25.4539C80.1054 25.4539 79.2478 25.102 78.5882 24.3764C77.9505 23.6507 77.6206 22.7492 77.6206 21.6717C77.6206 20.5282 77.9505 19.6047 78.6101 18.879C79.2698 18.1534 80.1714 17.7796 81.2928 17.7796C82.3703 17.7796 83.2499 18.1314 83.8876 18.857C84.5253 19.5607 84.8331 20.4403 84.8331 21.5398H84.8551ZM83.1619 21.5837C83.1619 20.9021 83.008 20.3303 82.7222 19.8466C82.3703 19.2528 81.8866 18.967 81.2489 18.967C80.5892 18.967 80.0834 19.2528 79.7536 19.8466C79.4677 20.3303 79.3138 20.924 79.3138 21.6057C79.3138 22.2874 79.4677 22.8591 79.7536 23.3429C80.1054 23.9366 80.6112 24.2225 81.2489 24.2225C81.8646 24.2225 82.3703 23.9146 82.7222 23.3209C83.03 22.8151 83.1839 22.2434 83.1839 21.5617L83.1619 21.5837ZM90.1766 19.3628C90.0007 19.3408 89.8467 19.3188 89.6708 19.3188C89.0991 19.3188 88.6593 19.5387 88.3295 19.9785C88.0656 20.3523 87.9117 20.8361 87.9117 21.4298V25.2999H86.2845V20.2644C86.2845 20.2204 86.2845 20.1984 86.2845 20.1764C86.2845 19.4288 86.2625 18.6811 86.2405 17.9555H87.6698L87.7358 19.3628H87.7797C87.9556 18.879 88.2195 18.4832 88.5933 18.1974C88.9452 17.9335 89.341 17.8015 89.7808 17.8015C89.9347 17.8015 90.0666 17.8235 90.1986 17.8235V19.3848L90.1766 19.3628ZM97.4991 21.2539C97.4991 21.2759 97.4991 21.2979 97.4991 21.3199C97.4991 21.5398 97.4771 21.7816 97.4331 22.0015H92.5294C92.5514 22.7272 92.7933 23.2769 93.2331 23.6727C93.6509 24.0246 94.1787 24.1785 94.8383 24.1785C95.564 24.1785 96.2237 24.0685 96.8174 23.8267L97.0813 24.9701C96.3776 25.278 95.564 25.4319 94.6184 25.4319C93.475 25.4319 92.5734 25.102 91.9357 24.4204C91.2761 23.7387 90.9682 22.8371 90.9682 21.7157C90.9682 20.6162 91.276 19.6926 91.8698 18.945C92.5075 18.1534 93.365 17.7576 94.4425 17.7576C95.498 17.7576 96.3116 18.1534 96.8614 18.945C97.3012 19.5607 97.4991 20.3523 97.4991 21.2539ZM95.9378 20.8361C95.9598 20.3523 95.8499 19.9345 95.63 19.5827C95.3441 19.1209 94.9043 18.901 94.3326 18.901C93.8048 18.901 93.365 19.1209 93.0352 19.5607C92.7713 19.9125 92.5954 20.3303 92.5514 20.8361H95.9598H95.9378Z" fill="white"/>
<path fill-rule="evenodd" clip-rule="evenodd" d="M96.7541 9.95423H94.3352C94.3572 10.6359 94.797 11.0317 95.4787 11.0317C95.8305 11.0317 96.1603 10.9657 96.4462 10.8558L96.5781 11.4055C96.2263 11.5595 95.8305 11.6254 95.3687 11.6254C94.2473 11.6254 93.5656 10.9218 93.5656 9.8003C93.5656 8.70083 94.2473 7.86523 95.2808 7.86523C96.2043 7.86523 96.776 8.54691 96.776 9.58041C96.776 9.6024 96.776 9.62439 96.776 9.64638C96.776 9.75633 96.776 9.84428 96.7541 9.95423Z" fill="white"/>
<path fill-rule="evenodd" clip-rule="evenodd" d="M92.4013 11.4347H91.5877V9.36768C91.5877 8.72999 91.3458 8.40015 90.8621 8.40015C90.4443 8.40015 90.0485 8.68601 90.0485 9.25774V11.4347H89.2349V6.15723H90.0485V8.33418H90.0705C90.3343 7.93837 90.6862 7.74047 91.1479 7.74047C91.9176 7.74047 92.3793 8.33418 92.3793 9.27973V11.4347H92.4013Z" fill="white"/>
<path fill-rule="evenodd" clip-rule="evenodd" d="M88.1666 8.507H87.287V10.2662C87.287 10.7059 87.441 10.9478 87.7488 10.9478C87.8808 10.9478 88.0127 10.9258 88.1007 10.9038L88.1226 11.5196C87.9687 11.5855 87.7488 11.6075 87.5069 11.6075C86.8693 11.6075 86.4954 11.2557 86.4954 10.3321V8.507H85.9677V7.91329H86.4954V7.2536L87.287 7.01172V7.91329H88.1666V8.507Z" fill="white"/>
<path fill-rule="evenodd" clip-rule="evenodd" d="M82.7536 11.5814H81.94V9.51444C81.94 8.87675 81.6981 8.54691 81.2144 8.54691C80.7306 8.54691 80.4008 8.96471 80.4008 9.42648V11.5814H79.5871V8.9867C79.5871 8.65685 79.5871 8.32701 79.5652 7.95319H80.2688L80.3128 8.50293H80.3348C80.5547 8.10712 80.9945 7.86523 81.4782 7.86523C82.2479 7.86523 82.7316 8.43696 82.7316 9.38251V11.5595L82.7536 11.5814Z" fill="white"/>
<path fill-rule="evenodd" clip-rule="evenodd" d="M76.5999 11.6474C75.5444 11.6474 74.8627 10.8558 74.8627 9.77832C74.8627 8.65685 75.5664 7.86523 76.6659 7.86523C77.6994 7.86523 78.403 8.61287 78.403 9.71235C78.403 10.8338 77.6774 11.6254 76.5999 11.6254V11.6474Z" fill="white"/>
<path fill-rule="evenodd" clip-rule="evenodd" d="M70.8372 11.4347L70.7933 10.863H70.7713C70.5294 11.3028 70.1556 11.5226 69.6058 11.5226C68.7263 11.5226 68.0886 10.753 68.0886 9.67554C68.0886 8.55407 68.7482 7.74047 69.6718 7.74047C70.1556 7.74047 70.5074 7.89439 70.6833 8.22423H70.7053V6.15723H71.5189V10.4672C71.5189 10.819 71.5189 11.1488 71.5409 11.4347H70.8153H70.8372Z" fill="white"/>
<path fill-rule="evenodd" clip-rule="evenodd" d="M66.2669 11.5595L66.201 11.1417H66.179C65.9371 11.4715 65.5853 11.6474 65.1235 11.6474C64.4858 11.6474 64.024 11.1856 64.024 10.5919C64.024 9.69036 64.7936 9.22858 66.135 9.22858V9.16261C66.135 8.67884 65.8931 8.43696 65.3874 8.43696C65.0355 8.43696 64.7277 8.52492 64.4418 8.70083L64.2879 8.17309C64.6177 7.95319 65.0355 7.86523 65.5193 7.86523C66.4648 7.86523 66.9486 8.37099 66.9486 9.36052V10.7019C66.9486 11.0757 66.9706 11.3396 66.9926 11.5595H66.2669Z" fill="white"/>
<path fill-rule="evenodd" clip-rule="evenodd" d="M61.271 11.6474C60.2155 11.6474 59.5338 10.8558 59.5338 9.77832C59.5338 8.65685 60.2375 7.86523 61.3369 7.86523C62.3704 7.86523 63.0741 8.61287 63.0741 9.71235C63.0741 10.8338 62.3485 11.6254 61.271 11.6254V11.6474Z" fill="white"/>
<path fill-rule="evenodd" clip-rule="evenodd" d="M58.334 11.4347H57.5424V6.15723H58.334V11.4347Z" fill="white"/>
<path fill-rule="evenodd" clip-rule="evenodd" d="M56.1076 11.5814H55.294V9.51444C55.294 8.87675 55.0521 8.54691 54.5683 8.54691C54.0845 8.54691 53.7547 8.96471 53.7547 9.42648V11.5814H52.9411V8.9867C52.9411 8.65685 52.9411 8.32701 52.9191 7.95319H53.6228L53.6667 8.50293H53.6887C53.9086 8.10712 54.3484 7.86523 54.8322 7.86523C55.6018 7.86523 56.0856 8.43696 56.0856 9.38251V11.5595L56.1076 11.5814Z" fill="white"/>
<path fill-rule="evenodd" clip-rule="evenodd" d="M51.9635 7.86523L50.8421 11.4935H50.0944L49.6326 9.93224C49.5227 9.55842 49.4128 9.16261 49.3468 8.7668H49.3248C49.2588 9.16261 49.1489 9.55842 49.0389 9.93224L48.5332 11.4935H47.7855L46.73 7.86523H47.5656L47.9834 9.58041C48.0714 9.99821 48.1594 10.372 48.2253 10.7459H48.2473C48.3133 10.438 48.4012 10.0642 48.5552 9.6024L49.0609 7.86523H49.7206L50.2044 9.55842C50.3143 9.97622 50.4243 10.372 50.4902 10.7459H50.5122C50.5562 10.372 50.6442 9.97622 50.7541 9.55842L51.1939 7.86523H51.9855H51.9635Z" fill="white"/>
<path fill-rule="evenodd" clip-rule="evenodd" d="M44.1365 11.6474C43.081 11.6474 42.3993 10.8558 42.3993 9.77832C42.3993 8.65685 43.103 7.86523 44.2025 7.86523C45.236 7.86523 45.9396 8.61287 45.9396 9.71235C45.9396 10.8338 45.214 11.6254 44.1365 11.6254V11.6474Z" fill="white"/>
<path fill-rule="evenodd" clip-rule="evenodd" d="M38.4907 11.4697C38.0289 11.4697 37.6331 11.4477 37.3253 11.4037V6.47811C37.765 6.41214 38.2268 6.36816 38.6886 6.36816H38.7106C40.5797 6.36816 41.4593 7.29172 41.4593 8.787C41.4593 10.5242 40.4478 11.4697 38.5127 11.4697H38.4907Z" fill="white"/>
<path fill-rule="evenodd" clip-rule="evenodd" d="M38.7866 7.01172C38.5448 7.01172 38.3249 7.03371 38.149 7.0557V10.8159C38.2369 10.8379 38.4348 10.8379 38.6987 10.8379C39.9301 10.8379 40.6338 10.1342 40.6338 8.83684C40.6338 7.6714 39.9961 7.01172 38.8086 7.01172H38.7866Z" fill="black"/>
<path fill-rule="evenodd" clip-rule="evenodd" d="M96.1659 9.23265C96.1659 8.68292 95.8801 8.28711 95.3743 8.28711C94.9125 8.28711 94.5387 8.68292 94.4948 9.23265H96.1659Z" fill="black"/>
<path fill-rule="evenodd" clip-rule="evenodd" d="M76.632 8.28711C76.0603 8.28711 75.6865 8.83684 75.6865 9.58449C75.6865 10.3321 76.0603 10.8819 76.632 10.8819C77.2037 10.8819 77.5776 10.3101 77.5776 9.58449C77.5776 8.83684 77.2037 8.28711 76.632 8.28711Z" fill="black"/>
<path fill-rule="evenodd" clip-rule="evenodd" d="M70.6847 9.44359C70.6847 8.93784 70.3548 8.49805 69.8271 8.49805C69.2333 8.49805 68.8595 9.02579 68.8595 9.77343C68.8595 10.4991 69.2333 11.0048 69.8051 11.0048C70.3108 11.0048 70.6627 10.5651 70.6627 10.0373V9.44359H70.6847Z" fill="black"/>
<path fill-rule="evenodd" clip-rule="evenodd" d="M44.1686 8.28711C43.5968 8.28711 43.223 8.83684 43.223 9.58449C43.223 10.3321 43.5968 10.8819 44.1686 10.8819C44.7403 10.8819 45.1141 10.3101 45.1141 9.58449C45.1141 8.83684 44.7403 8.28711 44.1686 8.28711Z" fill="black"/>
<path fill-rule="evenodd" clip-rule="evenodd" d="M61.3031 8.28711C60.7313 8.28711 60.3575 8.83684 60.3575 9.58449C60.3575 10.3321 60.7313 10.8819 61.3031 10.8819C61.8748 10.8819 62.2486 10.3101 62.2486 9.58449C62.2486 8.83684 61.8748 8.28711 61.3031 8.28711Z" fill="black"/>
<path fill-rule="evenodd" clip-rule="evenodd" d="M65.8965 9.77344C64.9949 9.77344 64.5551 9.99333 64.5551 10.4991C64.5551 10.8729 64.797 11.0708 65.1049 11.0708C65.5227 11.0708 65.8965 10.763 65.8965 10.3452V9.79543V9.77344Z" fill="black"/>
</svg>
