<svg width="17" height="17" viewBox="0 0 17 17" fill="none" xmlns="http://www.w3.org/2000/svg">
<g clip-path="url(#clip0_63_2360)">
<path fill-rule="evenodd" clip-rule="evenodd" d="M0 0H2.87776L3.73078 2.56842H16.9947L12.2516 11.1361H6.20546L4.38694 13.5639C4.5088 13.7326 4.60254 13.9295 4.64941 14.1357H12.4672C12.6546 13.3952 13.3296 12.8515 14.1263 12.8515C15.0731 12.8515 15.8417 13.6201 15.8417 14.5669C15.8417 15.5137 15.0731 16.2823 14.1263 16.2823C13.3296 16.2823 12.6546 15.7386 12.4672 14.9981H4.64941C4.46193 15.7386 3.78702 16.2823 2.99024 16.2823C2.04349 16.2823 1.27484 15.5137 1.27484 14.5669C1.27484 13.6201 2.04349 12.8515 2.99024 12.8515C3.25271 12.8515 3.49643 12.9077 3.7214 13.0202L5.5118 10.6393L2.25909 0.871764H0V0.0187476L0 0ZM6.2992 10.2737H11.7454L15.5418 3.42144H4.01199L6.2992 10.2737ZM14.1263 13.6951C13.6576 13.6951 13.2733 14.0795 13.2733 14.5482C13.2733 15.0168 13.6576 15.4012 14.1263 15.4012C14.595 15.4012 14.9793 15.0168 14.9793 14.5482C14.9793 14.0795 14.595 13.6951 14.1263 13.6951ZM2.13723 14.5482C2.13723 14.0795 2.52155 13.6951 2.99024 13.6951C3.45894 13.6951 3.84326 14.0795 3.84326 14.5482C3.84326 15.0168 3.45894 15.4012 2.99024 15.4012C2.52155 15.4012 2.13723 15.0168 2.13723 14.5482Z" fill="black"/>
</g>
<defs>
<clipPath id="clip0_63_2360">
<rect width="17" height="16.2729" fill="white"/>
</clipPath>
</defs>
</svg>
