<svg width="26" height="26" viewBox="0 0 26 26" fill="none" xmlns="http://www.w3.org/2000/svg">
<path d="M26 13.049C26 5.84371 20.192 0 13.0308 0C5.86961 0 0.0616455 5.84371 0.0616455 13.049C0.0616455 19.5637 4.80773 24.9644 11.0042 25.9416V16.821H7.70848V13.049H11.0042V10.176C11.0042 6.90561 12.9402 5.10103 15.9057 5.10103C17.3237 5.10103 18.8129 5.3551 18.8129 5.3551V8.56686H17.1747C15.5625 8.56686 15.0575 9.57013 15.0575 10.606V13.0555H18.6575L18.0812 16.8275H15.0575V25.9481C21.2604 24.9709 26 19.5702 26 13.0555V13.049Z" fill="#2ECC71"/>
</svg>
