<svg width="15" height="16" viewBox="0 0 15 16" fill="none" xmlns="http://www.w3.org/2000/svg">
<g clip-path="url(#clip0_63_2363)">
<path fill-rule="evenodd" clip-rule="evenodd" d="M14.9986 14.6042C14.9986 14.7697 14.9986 14.9351 14.9779 15.1006H13.9023C13.9023 14.9351 13.9229 14.7697 13.9229 14.6042C13.9643 7.17797 7.96544 1.11703 0.539245 1.07566C0.373758 1.07566 0.208272 1.07566 0.0427856 1.07566V0C0.208272 0 0.373758 0 0.539245 0C8.56533 0.0413716 15.04 6.57808 14.9986 14.6042Z" fill="black"/>
<path fill-rule="evenodd" clip-rule="evenodd" d="M10.696 14.5836C10.696 14.7491 10.696 14.9145 10.6753 15.08H9.59961C9.59961 14.9145 9.6203 14.7491 9.6203 14.5836C9.64099 9.53624 5.56589 5.41977 0.518554 5.3784C0.353067 5.3784 0.187581 5.3784 0.0220947 5.3784V4.30273C0.187581 4.30273 0.353067 4.30273 0.518554 4.30273C6.16577 4.32342 10.7166 8.93635 10.696 14.5836Z" fill="black"/>
<path fill-rule="evenodd" clip-rule="evenodd" d="M6.37263 15.0594C6.39331 14.8939 6.39331 14.7285 6.39331 14.563C6.414 11.2946 3.76622 8.62615 0.497863 8.60547C0.332376 8.60547 0.16689 8.60547 0.00140381 8.62616V9.70182C0.16689 9.68113 0.332376 9.68113 0.497863 9.68113C3.16633 9.70182 5.33834 11.8738 5.31765 14.5423C5.31765 14.7078 5.31765 14.8733 5.29697 15.0387H6.37263V15.0594Z" fill="black"/>
</g>
<defs>
<clipPath id="clip0_63_2363">
<rect width="15" height="15.1006" fill="white"/>
</clipPath>
</defs>
</svg>
