<svg width="9" height="7" viewBox="0 0 9 7" fill="none" xmlns="http://www.w3.org/2000/svg">
<path fill-rule="evenodd" clip-rule="evenodd" d="M6.27335 0.417969C5.60283 0.417969 5.01018 0.75539 4.65546 1.27017C4.65546 1.27017 4.53433 1.44753 4.34399 1.44753C4.15365 1.44753 4.03253 1.27017 4.03253 1.27017C3.6778 0.75539 3.08515 0.417969 2.41464 0.417969C1.32884 0.417969 0.44635 1.29613 0.44635 2.38626C0.44635 2.64149 0.498261 2.88806 0.584779 3.11301C1.13417 4.82174 3.59994 6.83329 4.33967 6.90683C5.0794 6.83329 7.54517 4.82174 8.09456 3.11301C8.1854 2.88806 8.23298 2.64581 8.23298 2.38626C8.23298 1.30045 7.35483 0.417969 6.2647 0.417969L6.27335 0.417969Z" fill="#EA2027"/>
</svg>
