<svg width="26" height="26" viewBox="0 0 26 26" fill="none" xmlns="http://www.w3.org/2000/svg">
<path fill-rule="evenodd" clip-rule="evenodd" d="M12.9702 0C20.1338 0 25.9403 5.80655 25.9403 12.9702C25.9403 20.1338 20.1338 25.9403 12.9702 25.9403C5.80655 25.9403 0 20.1338 0 12.9702C0 5.80655 5.80655 0 12.9702 0ZM13.1082 11.9709V14.3707H17.0772C16.9162 15.4006 15.8773 17.389 13.1082 17.389C10.7199 17.389 8.76988 15.4096 8.76988 12.9715C8.76988 10.5333 10.7186 8.55393 13.1082 8.55393C14.4678 8.55393 15.3776 9.13407 15.8977 9.63371L17.7979 7.80511C16.5788 6.66271 14.9981 5.97267 13.1095 5.97267C9.24013 5.97267 6.11068 9.1034 6.11068 12.9715C6.11068 16.8395 9.24013 19.9702 13.1095 19.9702C17.1475 19.9702 19.8297 17.1296 19.8297 13.1325C19.8297 12.6737 19.7798 12.3236 19.7198 11.9735L13.1095 11.9709H13.1082Z" fill="#2ECC71"/>
</svg>
