<svg width="39" height="39" viewBox="0 0 39 39" fill="none" xmlns="http://www.w3.org/2000/svg">
<path d="M19.5 39C30.2696 39 39 30.2696 39 19.5C39 8.73045 30.2696 0 19.5 0C8.73045 0 0 8.73045 0 19.5C0 30.2696 8.73045 39 19.5 39Z" fill="#2ECC71"/>
<path d="M17.504 12.3027H13.4926L13.4734 18.7899H17.504V12.3027Z" fill="white"/>
<path d="M13.4734 20.21V26.6972H17.4848L17.504 20.21H13.4734Z" fill="white"/>
<path d="M18.0606 19.8447C17.8879 19.9407 17.7535 20.0942 17.7151 20.2478C17.7151 20.267 17.6959 20.2862 17.6959 20.3245V20.3629V20.4397V20.5741V20.8619C17.6959 21.2458 17.7151 21.6105 17.7535 21.9943C17.8303 22.762 17.9838 23.5106 18.2525 24.2783C18.3869 24.6621 18.5596 25.0268 18.7707 25.4107C18.9818 25.7945 19.2697 26.1592 19.6536 26.5047C19.8455 26.6774 20.0758 26.8501 20.3445 27.0037C20.6132 27.1572 20.9587 27.3108 21.3618 27.3875C21.7648 27.4835 22.2254 27.4835 22.6285 27.4259C23.0507 27.3683 23.4154 27.234 23.7033 27.0804C24.0104 26.9269 24.2407 26.7734 24.471 26.5814C24.6629 26.4279 24.8933 26.2168 25.0468 26.0056C25.3731 25.5642 25.5458 25.0652 25.5458 24.5854C25.5458 24.1055 25.3731 23.6449 25.1428 23.2419C24.9125 22.8388 24.5862 22.4741 24.2407 22.1671C23.5306 21.5145 22.7053 20.9963 21.784 20.5741C21.3234 20.3629 20.8436 20.171 20.3445 20.0175C19.8455 19.8639 19.3081 19.7488 18.7515 19.6912C18.5212 19.672 18.2717 19.7296 18.099 19.8255L18.0606 19.8447ZM18.5788 20.267C19.4809 20.4205 20.3062 20.8236 21.0163 21.2842C21.7264 21.7448 22.3406 22.3014 22.782 22.8772C23.2235 23.453 23.4922 24.0672 23.4346 24.5854C23.4154 24.8349 23.3194 25.0652 23.1467 25.2763C23.0507 25.3915 22.974 25.4682 22.8204 25.5834C22.7053 25.6794 22.5709 25.7753 22.4366 25.8329C22.3214 25.8905 22.2063 25.9289 22.1295 25.9481C22.0527 25.9673 21.9759 25.9673 21.88 25.9481C21.688 25.9289 21.4002 25.7945 21.1123 25.5834C20.5557 25.1612 20.0758 24.547 19.692 23.9136C19.3081 23.2803 19.001 22.5893 18.7899 21.8984C18.6748 21.5529 18.598 21.1882 18.5404 20.8428L18.502 20.5741L18.4636 20.3629C18.4636 20.3437 18.4828 20.3053 18.502 20.2862C18.5212 20.267 18.5404 20.267 18.5596 20.2862L18.5788 20.267Z" fill="white"/>
<path d="M18.0606 19.1361C17.8879 19.0402 17.7535 18.8866 17.7151 18.7331C17.7151 18.7139 17.6959 18.6947 17.6959 18.6563V18.6179V18.5411V18.4068V18.1189C17.6959 17.735 17.7151 17.3704 17.7535 16.9865C17.8303 16.2188 17.9838 15.4703 18.2525 14.7026C18.3869 14.3187 18.5596 13.954 18.7707 13.5702C18.9818 13.1863 19.2697 12.8217 19.6536 12.4762C19.8455 12.3034 20.0758 12.1307 20.3445 11.9772C20.6132 11.8236 20.9587 11.6701 21.3618 11.5933C21.7648 11.4973 22.2254 11.4973 22.6285 11.5549C23.0507 11.6125 23.4154 11.7468 23.7033 11.9004C24.0104 12.0539 24.2407 12.2075 24.471 12.3994C24.6629 12.553 24.8933 12.7641 25.0468 12.9752C25.3731 13.4166 25.5458 13.9156 25.5458 14.3955C25.5458 14.8753 25.3731 15.3359 25.1428 15.739C24.9125 16.142 24.5862 16.5067 24.2407 16.8138C23.5306 17.4663 22.7053 17.9845 21.784 18.4068C21.3234 18.6179 20.8436 18.8098 20.3445 18.9634C19.8455 19.1169 19.3081 19.2321 18.7515 19.2897C18.5212 19.3089 18.2717 19.2513 18.099 19.1553L18.0606 19.1361ZM18.5788 18.7139C19.4809 18.5603 20.3062 18.1573 21.0163 17.6967C21.7264 17.236 22.3406 16.6794 22.782 16.1036C23.2235 15.5279 23.4922 14.9137 23.4346 14.3955C23.4154 14.146 23.3194 13.9156 23.1467 13.7045C23.0507 13.5894 22.974 13.5126 22.8204 13.3974C22.7053 13.3015 22.5709 13.2055 22.4366 13.1479C22.3214 13.0904 22.2063 13.052 22.1295 13.0328C22.0527 13.0136 21.9759 13.0136 21.88 13.0328C21.688 13.052 21.4002 13.1863 21.1123 13.3974C20.5557 13.8197 20.0758 14.4339 19.692 15.0672C19.3081 15.7006 19.001 16.3915 18.7899 17.0825C18.6748 17.428 18.598 17.7926 18.5404 18.1381L18.502 18.4068L18.4636 18.6179C18.4636 18.6371 18.4828 18.6755 18.502 18.6947C18.5212 18.7139 18.5404 18.7139 18.5596 18.6947L18.5788 18.7139Z" fill="white"/>
</svg>
