<?xml version="1.0" encoding="UTF-8"?>
<!DOCTYPE svg PUBLIC "-//W3C//DTD SVG 1.1//EN" "http://www.w3.org/Graphics/SVG/1.1/DTD/svg11.dtd">
<!-- Creator: CorelDRAW 2019 (64-Bit) -->
<svg xmlns="http://www.w3.org/2000/svg" xml:space="preserve" width="0.885177in" height="0.152744in" version="1.1" style="shape-rendering:geometricPrecision; text-rendering:geometricPrecision; image-rendering:optimizeQuality; fill-rule:evenodd; clip-rule:evenodd"
viewBox="0 0 307.82 53.12"
 xmlns:xlink="http://www.w3.org/1999/xlink"
 xmlns:xodm="http://www.corel.com/coreldraw/odm/2003">
 <defs>
  <style type="text/css">
   <![CDATA[
    .fil0 {fill:#2ECC71;fill-rule:nonzero}
   ]]>
  </style>
 </defs>
 <g id="Layer_x0020_1">
  <metadata id="CorelCorpID_0Corel-Layer"/>
  <g id="_2696332717040">
   <polygon class="fil0" points="100.37,8.25 88.5,8.25 88.48,27.41 100.35,27.41 "/>
   <polygon class="fil0" points="88.48,31.62 88.46,50.78 100.33,50.79 100.35,31.62 "/>
  </g>
  <path class="fil0" d="M19.94 26.17l0 8.33 12.2 0c-0.75,2.22 -2.05,3.97 -3.9,5.24 -1.85,1.27 -4.06,1.9 -6.64,1.9 -3.33,0 -6.12,-1.14 -8.36,-3.42 -2.24,-2.28 -3.36,-5.11 -3.36,-8.48 0,-3.37 1.09,-6.19 3.27,-8.45 2.18,-2.26 4.9,-3.39 8.15,-3.39 4.72,0 8.06,1.9 10,5.71l9.46 -2.74c-1.35,-3.81 -3.79,-6.76 -7.32,-8.84 -3.53,-2.08 -7.58,-3.13 -12.14,-3.13 -5.99,0 -11.04,2.01 -15.15,6.04 -4.11,4.03 -6.16,8.96 -6.16,14.79 0,5.87 2.07,10.81 6.22,14.82 4.15,4.01 9.24,6.01 15.27,6.01 5.99,0 10.93,-1.95 14.82,-5.86 3.89,-3.91 5.83,-8.88 5.83,-14.91 0,-1.15 -0.08,-2.36 -0.24,-3.63l-21.97 0z"/>
  <path class="fil0" d="M65.32 8.62c-5.96,0 -10.98,1.97 -15.08,5.91 -4.1,3.94 -6.15,9 -6.15,15.18 0,6.23 2.05,11.32 6.15,15.26 4.1,3.94 9.13,5.91 15.08,5.91 5.85,0 10.82,-1.97 14.89,-5.91 4.07,-3.94 6.11,-9.03 6.11,-15.26 0,-6.18 -2.04,-11.24 -6.11,-15.18 -4.07,-3.94 -9.04,-5.91 -14.89,-5.91zm0 31.47c-2.6,0 -4.82,-0.97 -6.68,-2.92 -1.86,-1.94 -2.79,-4.43 -2.79,-7.47 0,-3.04 0.94,-5.52 2.83,-7.47 1.88,-1.94 4.1,-2.92 6.64,-2.92 2.44,0 4.59,0.97 6.45,2.92 1.86,1.94 2.79,4.43 2.79,7.47 0,3.04 -0.92,5.52 -2.75,7.47 -1.83,1.94 -4,2.92 -6.49,2.92z"/>
  <path class="fil0" d="M166.73 8.62l0 29.29c0,3.88 1.18,7.01 3.54,9.39 2.36,2.38 5.48,3.58 9.36,3.58 2.68,0 5.62,-0.77 8.8,-2.31l-1.86 -9.32c-1.99,0.7 -3.43,1.04 -4.32,1.04 -1.09,0 -1.96,-0.3 -2.61,-0.89 -0.65,-0.6 -0.97,-1.39 -0.97,-2.38l0 -28.39 -11.93 0z"/>
  <path class="fil0" d="M229.91 29.75c-0.11,-6.44 -2.15,-11.62 -6.12,-15.54 -3.97,-3.92 -8.88,-5.88 -14.74,-5.88 -6.01,0 -11.09,2.01 -15.22,6.04 -4.13,4.03 -6.2,9.15 -6.2,15.38 0,6.28 2.07,11.42 6.2,15.42 4.13,4 9.18,6 15.14,6 4.72,0 8.82,-1.06 12.28,-3.18 3.46,-2.12 6.05,-5.28 7.77,-9.46l-11.44 -2.34c-1.72,3.11 -4.59,4.67 -8.62,4.67 -2.15,0 -4,-0.7 -5.56,-2.09 -1.56,-1.4 -2.6,-3.3 -3.14,-5.72l29.64 0 0 -3.3zm-20.86 -10.95c1.93,0 3.62,0.54 5.07,1.61 1.45,1.07 2.47,2.66 3.06,4.75l-16.67 0c0.59,-1.99 1.69,-3.54 3.3,-4.67 1.61,-1.13 3.36,-1.69 5.23,-1.69z"/>
  <path class="fil0" d="M305.06 38.93c-1.74,0.99 -3.56,1.49 -5.44,1.49 -3.33,0 -5,-1.82 -5,-5.44l0 -12.98 11.04 0 0 -9.47 -11.04 0 0 -12.53 -11.93 0 0 12.53 -6.79 0 0 9.47 6.79 0 0 14.17c0,4.87 1.31,8.58 3.92,11.11 2.61,2.54 6.28,3.8 11,3.8 3.38,0 6.79,-0.92 10.22,-2.76l-2.76 -9.4z"/>
  <path class="fil0" d="M253.62 39.8c-2.87,0 -5.18,-0.93 -6.94,-2.79 -1.76,-1.86 -2.63,-4.28 -2.63,-7.26 0,-2.92 0.88,-5.33 2.63,-7.22 1.76,-1.89 4.07,-2.83 6.94,-2.83 2.13,0 3.94,0.6 5.42,1.79 1.49,1.2 2.5,2.96 3.03,5.3l11.97 -2.87c-1.12,-4.63 -3.56,-8.35 -7.34,-11.17 -3.78,-2.82 -8.14,-4.23 -13.08,-4.23 -6.12,0 -11.29,1.99 -15.51,5.98 -4.23,3.99 -6.34,9.07 -6.34,15.24 0,6.22 2.11,11.31 6.34,15.28 4.23,3.96 9.4,5.94 15.51,5.94 5.05,0 9.47,-1.44 13.24,-4.31 3.78,-2.87 6.17,-6.65 7.18,-11.33l-11.73 -2.55c-1.33,4.68 -4.23,7.02 -8.7,7.02z"/>
  <path class="fil0" d="M143.93 8.62c-5.96,0 -10.98,1.97 -15.08,5.91 -4.1,3.94 -6.15,9 -6.15,15.18 0,6.23 2.05,11.32 6.15,15.26 4.1,3.94 9.12,5.91 15.08,5.91 5.85,0 10.82,-1.97 14.89,-5.91 4.07,-3.94 6.11,-9.03 6.11,-15.26 0,-6.18 -2.04,-11.24 -6.11,-15.18 -4.07,-3.94 -9.03,-5.91 -14.89,-5.91zm0 31.47c-2.6,0 -4.82,-0.97 -6.68,-2.92 -1.86,-1.94 -2.79,-4.43 -2.79,-7.47 0,-3.04 0.94,-5.52 2.83,-7.47 1.88,-1.94 4.1,-2.92 6.64,-2.92 2.44,0 4.59,0.97 6.45,2.92 1.86,1.94 2.79,4.43 2.79,7.47 0,3.04 -0.92,5.52 -2.75,7.47 -1.83,1.94 -4,2.92 -6.49,2.92z"/>
  <g id="_2696332720624">
   <path class="fil0" d="M102.01 30.56c-0.53,0.3 -0.88,0.71 -1.02,1.18 -0.02,0.07 -0.03,0.14 -0.04,0.21l-0.01 0.11 -0.01 0.25 -0.01 0.42 -0.01 0.84c0.01,1.11 0.07,2.23 0.17,3.35 0.24,2.24 0.66,4.49 1.46,6.73 0.4,1.12 0.9,2.23 1.55,3.34 0.64,1.11 1.47,2.19 2.59,3.25 0.56,0.53 1.23,1.04 2.05,1.5 0.82,0.46 1.8,0.89 2.98,1.14 1.17,0.27 2.54,0.31 3.77,0.11 1.23,-0.19 2.3,-0.58 3.17,-1.02 0.88,-0.45 1.58,-0.91 2.24,-1.45 0.58,-0.47 1.23,-1.09 1.7,-1.72 0.98,-1.28 1.49,-2.78 1.46,-4.21 -0.02,-1.43 -0.51,-2.76 -1.22,-3.94 -0.69,-1.19 -1.63,-2.24 -2.65,-3.2 -2.08,-1.9 -4.56,-3.44 -7.27,-4.7 -1.35,-0.63 -2.77,-1.18 -4.26,-1.63 -1.48,-0.45 -3.06,-0.82 -4.71,-0.95l-0.02 0c-0.67,-0.08 -1.4,0.09 -1.92,0.38zm1.55 1.23c2.66,0.48 5.11,1.65 7.22,3 2.11,1.37 3.91,2.98 5.22,4.69 1.31,1.69 2.1,3.52 1.94,5.03 -0.07,0.76 -0.36,1.42 -0.87,2.04 -0.27,0.32 -0.53,0.58 -0.96,0.92 -0.35,0.27 -0.76,0.56 -1.11,0.73 -0.36,0.18 -0.67,0.29 -0.92,0.34 -0.24,0.05 -0.43,0.05 -0.71,0.02 -0.56,-0.05 -1.42,-0.47 -2.24,-1.08 -1.66,-1.24 -3.06,-3.06 -4.2,-4.92 -1.14,-1.89 -2.04,-3.91 -2.67,-5.98 -0.32,-1.04 -0.58,-2.08 -0.76,-3.14l-0.13 -0.8 -0.09 -0.64c-0.01,-0.07 0.03,-0.16 0.1,-0.2 0.07,-0.04 0.12,-0.03 0.18,-0.02l0.01 0z"/>
   <path class="fil0" d="M102.01 28.47c-0.53,-0.3 -0.88,-0.71 -1.02,-1.18 -0.02,-0.07 -0.03,-0.14 -0.04,-0.21l-0.01 -0.11 -0.01 -0.25 -0.01 -0.42 -0.01 -0.84c0.01,-1.11 0.07,-2.23 0.17,-3.35 0.24,-2.24 0.66,-4.49 1.46,-6.73 0.4,-1.12 0.9,-2.23 1.55,-3.34 0.64,-1.11 1.47,-2.19 2.59,-3.25 0.56,-0.53 1.23,-1.04 2.05,-1.5 0.82,-0.46 1.8,-0.89 2.98,-1.14 1.17,-0.27 2.54,-0.31 3.77,-0.11 1.23,0.19 2.3,0.58 3.17,1.02 0.88,0.45 1.58,0.91 2.24,1.45 0.58,0.47 1.23,1.09 1.7,1.72 0.98,1.28 1.49,2.78 1.46,4.21 -0.02,1.43 -0.51,2.76 -1.22,3.94 -0.69,1.19 -1.63,2.24 -2.65,3.2 -2.08,1.9 -4.56,3.44 -7.27,4.7 -1.35,0.63 -2.77,1.18 -4.26,1.63 -1.48,0.45 -3.06,0.82 -4.71,0.95l-0.02 -0c-0.67,0.08 -1.4,-0.09 -1.92,-0.38zm1.55 -1.23c2.66,-0.48 5.11,-1.65 7.22,-3 2.11,-1.37 3.91,-2.98 5.22,-4.69 1.31,-1.69 2.1,-3.52 1.94,-5.03 -0.07,-0.76 -0.36,-1.42 -0.87,-2.04 -0.27,-0.32 -0.53,-0.58 -0.96,-0.92 -0.35,-0.27 -0.76,-0.56 -1.11,-0.73 -0.36,-0.18 -0.67,-0.29 -0.92,-0.34 -0.24,-0.05 -0.43,-0.05 -0.71,-0.02 -0.56,0.05 -1.42,0.47 -2.24,1.08 -1.66,1.24 -3.06,3.06 -4.2,4.92 -1.14,1.89 -2.04,3.91 -2.67,5.98 -0.32,1.04 -0.58,2.08 -0.76,3.14l-0.13 0.8 -0.09 0.64c-0.01,0.07 0.03,0.16 0.1,0.2 0.07,0.04 0.12,0.03 0.18,0.02l0.01 -0z"/>
  </g>
 </g>
</svg>
