<svg width="262" height="45" viewBox="0 0 262 45" fill="none" xmlns="http://www.w3.org/2000/svg">
<path d="M85.2739 6.9248H75.1904L75.1735 23.2011H85.2569L85.2739 6.9248Z" fill="#2ECC71"/>
<path d="M75.1726 26.8291L75.1556 43.1054L85.2391 43.1139L85.2561 26.8291H75.1726Z" fill="#2ECC71"/>
<path d="M16.9474 22.1678V29.244H27.3111C26.674 31.1299 25.5697 32.6165 23.9981 33.6954C22.4266 34.7742 20.5492 35.3094 18.3575 35.3094C15.5287 35.3094 13.1586 34.341 11.2558 32.4042C9.3529 30.4673 8.40147 28.0633 8.40147 25.2005C8.40147 22.3377 9.32741 19.9421 11.1793 18.0223C13.0312 16.1024 15.3418 15.1425 18.1027 15.1425C22.1123 15.1425 24.9496 16.7565 26.5976 19.9931L34.6338 17.6655C33.4869 14.4289 31.4142 11.9229 28.4155 10.156C25.4168 8.38904 21.9763 7.49707 18.1027 7.49707C13.0142 7.49707 8.72428 9.20455 5.23287 12.628C1.74146 16.0514 0 20.2394 0 25.192C0 30.1785 1.75845 34.375 5.28384 37.7814C8.80923 41.1879 13.1331 42.8869 18.2556 42.8869C23.344 42.8869 27.5405 41.2304 30.845 37.9089C34.1496 34.5874 35.7976 30.3654 35.7976 25.2429C35.7976 24.266 35.7296 23.2381 35.5937 22.1593H16.9304L16.9474 22.1678Z" fill="#2ECC71"/>
<path d="M55.5045 7.21094C50.4416 7.21094 46.1771 8.88444 42.6942 12.2314C39.2113 15.5784 37.4698 19.8769 37.4698 25.1267C37.4698 30.419 39.2113 34.743 42.6942 38.09C46.1771 41.4369 50.4501 43.1104 55.5045 43.1104C60.4741 43.1104 64.696 41.4369 68.1535 38.09C71.6109 34.743 73.3439 30.419 73.3439 25.1267C73.3439 19.8769 71.6109 15.5784 68.1535 12.2314C64.696 8.88444 60.4741 7.21094 55.5045 7.21094V7.21094ZM55.5045 33.9444C53.2959 33.9444 51.41 33.1204 49.8299 31.4639C48.2499 29.8159 47.4599 27.7007 47.4599 25.1182C47.4599 22.5358 48.2584 20.429 49.8639 18.7725C51.461 17.1245 53.3468 16.292 55.5045 16.292C57.5773 16.292 59.4037 17.116 60.9838 18.7725C62.5638 20.4205 63.3538 22.5358 63.3538 25.1182C63.3538 27.7007 62.5723 29.8074 61.0177 31.4639C59.4632 33.1119 57.6198 33.9444 55.5045 33.9444V33.9444Z" fill="#2ECC71"/>
<path d="M141.638 7.21094V32.0925C141.638 35.3886 142.641 38.0475 144.645 40.0693C146.65 42.0911 149.301 43.1104 152.597 43.1104C154.873 43.1104 157.371 42.4563 160.072 41.1481L158.492 33.2309C156.802 33.8255 155.578 34.1143 154.822 34.1143C153.896 34.1143 153.157 33.8595 152.605 33.3583C152.053 32.8486 151.781 32.1775 151.781 31.3365V7.21943H141.647L141.638 7.21094Z" fill="#2ECC71"/>
<path d="M195.316 25.407C195.222 19.9363 193.489 15.536 190.117 12.2059C186.744 8.87594 182.573 7.21094 177.595 7.21094C172.49 7.21094 168.174 8.91842 164.666 12.3419C161.158 15.7653 159.399 20.1147 159.399 25.407C159.399 30.7419 161.158 35.1082 164.666 38.5062C168.174 41.9042 172.464 43.6031 177.527 43.6031C181.537 43.6031 185.02 42.7027 187.959 40.9018C190.898 39.1008 193.098 36.4165 194.56 32.8656L184.841 30.8778C183.38 33.5197 180.942 34.8449 177.519 34.8449C175.692 34.8449 174.121 34.2502 172.796 33.0695C171.47 31.8802 170.587 30.2661 170.128 28.2104H195.307V25.407H195.316ZM177.595 16.1051C179.235 16.1051 180.67 16.5638 181.902 17.4728C183.134 18.3817 184 19.7324 184.502 21.5079H170.341C170.842 19.8174 171.776 18.5007 173.144 17.5408C174.512 16.5808 175.998 16.1051 177.587 16.1051H177.595Z" fill="#2ECC71"/>
<path d="M259.145 33.0707C257.667 33.9117 256.121 34.3364 254.524 34.3364C251.695 34.3364 250.276 32.7904 250.276 29.7152V18.6888H259.655V10.6441H250.276V0H240.142V10.6441H234.374V18.6888H240.142V30.7261C240.142 34.8631 241.255 38.0147 243.472 40.1639C245.689 42.3217 248.807 43.392 252.816 43.392C255.688 43.392 258.584 42.6105 261.498 41.0474L259.153 33.0622L259.145 33.0707Z" fill="#2ECC71"/>
<path d="M215.448 33.783C213.01 33.783 211.048 32.993 209.553 31.4129C208.058 29.8329 207.319 27.7771 207.319 25.2456C207.319 22.7651 208.066 20.7179 209.553 19.1123C211.048 17.5068 213.01 16.7083 215.448 16.7083C217.258 16.7083 218.795 17.2179 220.052 18.2288C221.318 19.2482 222.176 20.7433 222.626 22.7311L232.795 20.2931C231.843 16.36 229.771 13.1999 226.56 10.8043C223.349 8.40872 219.645 7.21094 215.448 7.21094C210.249 7.21094 205.857 8.90143 202.273 12.2909C198.679 15.6804 196.887 19.9958 196.887 25.2371C196.887 30.521 198.679 34.8449 202.273 38.2174C205.866 41.5814 210.258 43.2634 215.448 43.2634C219.738 43.2634 223.493 42.0401 226.695 39.602C229.907 37.164 231.937 33.9529 232.795 29.9773L222.83 27.8111C221.7 31.7867 219.237 33.7745 215.44 33.7745L215.448 33.783Z" fill="#2ECC71"/>
<path d="M122.275 7.21094C117.212 7.21094 112.948 8.88444 109.465 12.2314C105.982 15.5784 104.241 19.8769 104.241 25.1267C104.241 30.419 105.982 34.743 109.465 38.09C112.948 41.4369 117.212 43.1104 122.275 43.1104C127.245 43.1104 131.467 41.4369 134.924 38.09C138.382 34.743 140.115 30.419 140.115 25.1267C140.115 19.8769 138.382 15.5784 134.924 12.2314C131.467 8.88444 127.253 7.21094 122.275 7.21094V7.21094ZM122.275 33.9444C120.067 33.9444 118.181 33.1204 116.601 31.4639C115.021 29.8159 114.231 27.7007 114.231 25.1182C114.231 22.5358 115.029 20.429 116.635 18.7725C118.232 17.1245 120.118 16.292 122.275 16.292C124.348 16.292 126.175 17.116 127.755 18.7725C129.335 20.4205 130.125 22.5358 130.125 25.1182C130.125 27.7007 129.343 29.8074 127.789 31.4639C126.234 33.1119 124.391 33.9444 122.275 33.9444V33.9444Z" fill="#2ECC71"/>
<path d="M86.6566 25.7348C86.2064 25.9897 85.9091 26.338 85.7901 26.7372C85.7731 26.7967 85.7646 26.8561 85.7561 26.9156L85.7477 27.0091L85.7392 27.2214L85.7307 27.5782L85.7222 28.2918C85.7307 29.2347 85.7816 30.1861 85.8666 31.1376C86.0705 33.0404 86.4272 34.9518 87.1068 36.8547C87.4466 37.8061 87.8714 38.749 88.4235 39.692C88.9672 40.6349 89.6723 41.5523 90.6237 42.4528C91.0994 42.903 91.6686 43.3363 92.3652 43.727C93.0618 44.1178 93.8943 44.4831 94.8967 44.6955C95.8906 44.9248 97.0544 44.9588 98.0993 44.7889C99.1441 44.6275 100.053 44.2962 100.792 43.9224C101.54 43.5402 102.134 43.1494 102.695 42.6907C103.188 42.2914 103.74 41.7647 104.139 41.2295C104.972 40.1422 105.405 38.868 105.379 37.6532C105.362 36.4384 104.946 35.3086 104.343 34.3062C103.757 33.2953 102.958 32.4033 102.092 31.5878C100.325 29.9738 98.2182 28.6656 95.9161 27.5952C94.7693 27.06 93.563 26.5928 92.2972 26.2105C91.04 25.8283 89.6978 25.5139 88.2961 25.4035H88.2791C87.71 25.3356 87.0898 25.48 86.6481 25.7263L86.6566 25.7348ZM87.9733 26.7797C90.233 27.1874 92.3142 28.1813 94.1066 29.3282C95.8991 30.492 97.4282 31.8596 98.541 33.3123C99.6538 34.7479 100.325 36.3025 100.189 37.5852C100.13 38.2308 99.8832 38.7915 99.4499 39.3182C99.2206 39.59 98.9997 39.8109 98.6344 40.0997C98.3371 40.3291 97.9888 40.5754 97.6915 40.7198C97.3857 40.8728 97.1223 40.9662 96.91 41.0087C96.7061 41.0511 96.5447 41.0511 96.3068 41.0257C95.8311 40.9832 95.1005 40.6264 94.404 40.1082C92.9938 39.0548 91.8045 37.5088 90.8361 35.9287C89.8677 34.3232 89.1031 32.6072 88.568 30.8488C88.2961 29.9653 88.0753 29.0818 87.9223 28.1813L87.8119 27.5018L87.7355 26.9581C87.727 26.8986 87.7609 26.8222 87.8204 26.7882C87.8799 26.7542 87.9223 26.7627 87.9733 26.7712H87.9818L87.9733 26.7797Z" fill="#2ECC71"/>
<path d="M86.6566 24.0593C86.2064 23.8045 85.9091 23.4562 85.7901 23.0569C85.7731 22.9975 85.7646 22.938 85.7561 22.8785L85.7477 22.7851L85.7392 22.5727L85.7307 22.2159L85.7222 21.5024C85.7307 20.5594 85.7816 19.608 85.8666 18.6566C86.0705 16.7537 86.4272 14.8424 87.1068 12.9395C87.4466 11.9881 87.8714 11.0451 88.4235 10.1022C88.9672 9.15926 89.6723 8.24181 90.6237 7.34135C91.0994 6.89112 91.6686 6.45788 92.3652 6.06711C93.0618 5.67634 93.8943 5.31106 94.8967 5.09869C95.8906 4.86933 97.0544 4.83535 98.0993 5.00525C99.1441 5.16665 100.053 5.49795 100.792 5.87173C101.54 6.254 102.134 6.64477 102.695 7.10349C103.188 7.50275 103.74 8.02944 104.139 8.56462C104.972 9.65196 105.405 10.9262 105.379 12.141C105.362 13.3557 104.946 14.4856 104.343 15.488C103.757 16.4989 102.958 17.3908 102.092 18.2063C100.325 19.8204 98.2182 21.1286 95.9161 22.199C94.7693 22.7341 93.563 23.2014 92.2972 23.5836C91.04 23.9659 89.6978 24.2802 88.2961 24.3906H88.2791C87.71 24.4586 87.0898 24.3142 86.6481 24.0678L86.6566 24.0593ZM87.9733 23.0145C90.233 22.6067 92.3142 21.6128 94.1066 20.466C95.8991 19.3022 97.4282 17.9345 98.541 16.4819C99.6538 15.0462 100.325 13.4917 100.189 12.2089C100.13 11.5633 99.8832 11.0027 99.4499 10.476C99.2206 10.2041 98.9997 9.98327 98.6344 9.69444C98.3371 9.46508 97.9888 9.21872 97.6915 9.07431C97.3857 8.9214 97.1223 8.82796 96.91 8.78548C96.7061 8.74301 96.5447 8.74301 96.3068 8.76849C95.8311 8.81097 95.1005 9.16775 94.404 9.68594C92.9938 10.7393 91.8045 12.2854 90.8361 13.8654C89.8677 15.471 89.1031 17.187 88.568 18.9454C88.2961 19.8289 88.0753 20.7123 87.9223 21.6128L87.8119 22.2924L87.7355 22.8361C87.727 22.8955 87.7609 22.972 87.8204 23.006C87.8799 23.0399 87.9223 23.0315 87.9733 23.023H87.9818L87.9733 23.0145Z" fill="#2ECC71"/>
</svg>
