<svg width="22" height="30" viewBox="0 0 22 30" fill="none" xmlns="http://www.w3.org/2000/svg">
<path d="M7.36486 1.47559H0.0253344L0.01297 13.3227H7.3525L7.36486 1.47559Z" fill="#2ECC71"/>
<path d="M0.0123692 15.9639L0 27.811L7.33953 27.8172L7.35189 15.9639H0.0123692Z" fill="#2ECC71"/>
<path d="M8.37129 15.1665C8.04358 15.352 7.82716 15.6055 7.74059 15.8961C7.72823 15.9394 7.72204 15.9826 7.71586 16.0259L7.70968 16.0939L7.7035 16.2485L7.69731 16.5082L7.69113 17.0276C7.69731 17.714 7.73441 18.4065 7.79625 19.099C7.94464 20.4841 8.20434 21.8753 8.699 23.2603C8.94633 23.9529 9.25549 24.6392 9.6574 25.3256C10.0531 26.0119 10.5663 26.6797 11.2589 27.3351C11.6051 27.6628 12.0194 27.9782 12.5264 28.2626C13.0335 28.547 13.6394 28.8129 14.369 28.9675C15.0925 29.1344 15.9396 29.1592 16.7001 29.0355C17.4607 28.918 18.1223 28.6769 18.6602 28.4048C19.2044 28.1266 19.6372 27.8421 20.0453 27.5082C20.4039 27.2176 20.8058 26.8343 21.0964 26.4447C21.7024 25.6533 22.0177 24.7258 21.9992 23.8416C21.9868 22.9574 21.6838 22.135 21.2448 21.4054C20.8182 20.6696 20.237 20.0203 19.6063 19.4267C18.3202 18.2519 16.7867 17.2997 15.111 16.5206C14.2763 16.131 13.3983 15.791 12.477 15.5127C11.5619 15.2345 10.5849 15.0057 9.56466 14.9253H9.55229C9.13801 14.8758 8.68663 14.981 8.3651 15.1603L8.37129 15.1665ZM9.32969 15.927C10.9744 16.2238 12.4893 16.9472 13.794 17.782C15.0987 18.6291 16.2117 19.6246 17.0217 20.6819C17.8317 21.7269 18.3202 22.8584 18.2212 23.7921C18.1779 24.262 17.9986 24.6701 17.6833 25.0535C17.5163 25.2514 17.3556 25.4121 17.0897 25.6223C16.8733 25.7893 16.6198 25.9686 16.4033 26.0737C16.1807 26.185 15.9891 26.253 15.8345 26.284C15.6861 26.3149 15.5686 26.3149 15.3955 26.2963C15.0492 26.2654 14.5174 26.0057 14.0104 25.6285C12.984 24.8618 12.1183 23.7365 11.4135 22.5864C10.7086 21.4177 10.1521 20.1687 9.76252 18.8888C9.56466 18.2457 9.40389 17.6027 9.29259 16.9472L9.21221 16.4526L9.15656 16.0568C9.15038 16.0136 9.17511 15.9579 9.21839 15.9332C9.26168 15.9084 9.29259 15.9146 9.32969 15.9208H9.33588L9.32969 15.927Z" fill="#2ECC71"/>
<path d="M8.3713 13.9468C8.04359 13.7613 7.82717 13.5078 7.74061 13.2172C7.72824 13.1739 7.72206 13.1306 7.71588 13.0873L7.7097 13.0193L7.70351 12.8647L7.69733 12.605L7.69115 12.0856C7.69733 11.3993 7.73443 10.7068 7.79626 10.0142C7.94466 8.62919 8.20436 7.23796 8.69902 5.85291C8.94635 5.16038 9.25551 4.47404 9.65742 3.7877C10.0531 3.10136 10.5664 2.43357 11.2589 1.77814C11.6051 1.45043 12.0194 1.13508 12.5265 0.850651C13.0335 0.566221 13.6394 0.300341 14.3691 0.14576C15.0925 -0.0211882 15.9396 -0.0459213 16.7002 0.0777439C17.4607 0.195226 18.1223 0.436373 18.6602 0.708436C19.2044 0.986683 19.6372 1.27111 20.0453 1.60501C20.4039 1.89562 20.8058 2.27898 21.0964 2.66853C21.7024 3.45999 22.0178 4.38748 21.9992 5.27168C21.9868 6.15589 21.6839 6.97826 21.2448 7.70789C20.8182 8.44369 20.237 9.09294 19.6063 9.68653C18.3202 10.8613 16.7867 11.8136 15.1111 12.5927C14.2763 12.9822 13.3983 13.3223 12.477 13.6005C11.5619 13.8788 10.5849 14.1076 9.56467 14.1879H9.5523C9.13803 14.2374 8.68665 14.1323 8.36512 13.953L8.3713 13.9468ZM9.32971 13.1863C10.9745 12.8895 12.4894 12.166 13.794 11.3313C15.0987 10.4842 16.2117 9.48866 17.0217 8.43133C17.8317 7.38636 18.3202 6.25482 18.2212 5.32115C18.178 4.85122 17.9986 4.44312 17.6833 4.05976C17.5163 3.8619 17.3556 3.70113 17.0897 3.4909C16.8733 3.32396 16.6198 3.14464 16.4034 3.03952C16.1808 2.92823 15.9891 2.86021 15.8345 2.82929C15.6861 2.79838 15.5686 2.79838 15.3955 2.81693C15.0492 2.84784 14.5175 3.10754 14.0104 3.48472C12.984 4.25144 12.1184 5.3768 11.4135 6.52688C10.7086 7.69552 10.1521 8.94454 9.76254 10.2245C9.56467 10.8675 9.40391 11.5106 9.29261 12.166L9.21223 12.6607L9.15658 13.0564C9.15039 13.0997 9.17512 13.1553 9.21841 13.1801C9.26169 13.2048 9.29261 13.1986 9.32971 13.1924H9.33589L9.32971 13.1863Z" fill="#2ECC71"/>
</svg>
