<svg width="112" height="35" viewBox="0 0 112 35" fill="none" xmlns="http://www.w3.org/2000/svg">
<path d="M91.9939 0H19.1576C8.57715 0 0 7.64407 0 17.0735C0 26.503 8.57715 34.147 19.1576 34.147H91.9939C102.574 34.147 111.151 26.503 111.151 17.0735C111.151 7.64407 102.574 0 91.9939 0Z" fill="black"/>
<path fill-rule="evenodd" clip-rule="evenodd" d="M58.1453 11.8708C57.4773 11.8708 56.943 11.6303 56.4887 11.2028C56.0612 10.7753 55.8208 10.1608 55.8208 9.54624C55.8208 8.87826 56.0345 8.31716 56.4887 7.88966C56.9162 7.43543 57.4773 7.22168 58.1453 7.22168C58.7866 7.22168 59.3477 7.46215 59.8019 7.88966C60.2561 8.34388 60.4699 8.90498 60.4699 9.54624C60.4699 10.2142 60.2294 10.7753 59.8019 11.2028C59.3744 11.6571 58.8133 11.8975 58.1453 11.8975V11.8708ZM38.6404 11.8708C37.9991 11.8708 37.438 11.6571 36.9838 11.2028C36.5296 10.7486 36.3158 10.1875 36.3158 9.54624C36.3158 8.87826 36.5563 8.31716 36.9838 7.88966C37.438 7.43543 37.9991 7.22168 38.6404 7.22168C38.961 7.22168 39.2549 7.27512 39.5755 7.40871C39.8695 7.54231 40.1099 7.70262 40.2702 7.91638L40.3237 7.96981L39.8427 8.45076L39.7893 8.39732C39.5221 8.07669 39.148 7.91638 38.6404 7.91638C38.2129 7.91638 37.8121 8.07669 37.5182 8.3706C37.1975 8.69123 37.0372 9.09202 37.0372 9.57296C37.0372 10.0539 37.1975 10.4547 37.5182 10.7753C37.8388 11.096 38.2129 11.2295 38.6404 11.2295C39.0946 11.2295 39.4954 11.0692 39.816 10.7753C40.003 10.5883 40.1099 10.3478 40.1366 10.0272H38.5602V9.35921H40.8046V9.41265C40.8313 9.51952 40.8313 9.65312 40.8313 9.76C40.8313 10.3745 40.6443 10.8822 40.2702 11.2563C39.8427 11.6838 39.3084 11.9242 38.6137 11.9242L38.6404 11.8708ZM64.5846 11.7639H63.8899L61.7791 8.3706L61.8058 8.98514V11.7639H61.1111V7.27512H61.9127L61.9394 7.30184L63.9434 10.5081L63.9167 9.89359V7.27512H64.6114V11.7639H64.5846ZM52.9618 11.7639H52.2671V7.9431H51.038V7.27512H54.1642V7.9431H52.9351V11.7639H52.9618ZM50.4769 11.7639H49.7822V7.27512H50.4769V11.7639ZM46.5492 11.7639H45.8545V7.9431H44.6255V7.27512H47.7516V7.9431H46.5225V11.7639H46.5492ZM44.198 11.7639H41.526V7.27512H44.198V7.9431H42.2207V9.17217H44.0109V9.84015H42.2207V11.0692H44.198V11.7372V11.7639ZM57.0498 10.7219C57.3705 11.0425 57.7445 11.2028 58.172 11.2028C58.6263 11.2028 59.0003 11.0425 59.2942 10.7219C59.5882 10.4013 59.7485 10.0005 59.7485 9.51952C59.7485 9.03858 59.5882 8.63779 59.2942 8.31716C58.9736 7.99653 58.5996 7.83622 58.172 7.83622C57.7178 7.83622 57.3438 7.99653 57.0498 8.31716C56.7292 8.63779 56.5956 9.03858 56.5956 9.51952C56.5956 10.0005 56.7559 10.4013 57.0498 10.7219Z" fill="white"/>
<path fill-rule="evenodd" clip-rule="evenodd" d="M55.7682 18.0851C54.0581 18.0851 52.6688 19.3676 52.6688 21.1578C52.6688 22.9212 54.0581 24.2305 55.7682 24.2305C57.4782 24.2305 58.8676 22.9212 58.8676 21.1578C58.8676 19.3676 57.4782 18.0851 55.7682 18.0851ZM55.7682 23.0281C54.833 23.0281 54.0314 22.2533 54.0314 21.1578C54.0314 20.0356 54.833 19.2874 55.7682 19.2874C56.7033 19.2874 57.5049 20.0356 57.5049 21.1578C57.5049 22.2533 56.7033 23.0281 55.7682 23.0281ZM49.035 18.0851C47.3249 18.0851 45.9355 19.3676 45.9355 21.1578C45.9355 22.9212 47.3249 24.2305 49.035 24.2305C50.745 24.2305 52.1344 22.9212 52.1344 21.1578C52.1344 19.3676 50.745 18.0851 49.035 18.0851ZM49.035 23.0281C48.0998 23.0281 47.2982 22.2533 47.2982 21.1578C47.2982 20.0356 48.0998 19.2874 49.035 19.2874C49.9701 19.2874 50.7717 20.0356 50.7717 21.1578C50.7717 22.2533 49.9701 23.0281 49.035 23.0281ZM41.0192 19.0203V20.3295H44.1454C44.0385 21.0509 43.798 21.612 43.4239 21.9594C42.9697 22.4136 42.2483 22.9212 41.0192 22.9212C39.0954 22.9212 37.5992 21.3715 37.5992 19.4478C37.5992 17.524 39.0954 15.9743 41.0192 15.9743C42.0613 15.9743 42.8094 16.3751 43.3705 16.9094L44.3057 15.9743C43.5308 15.2261 42.4888 14.665 41.0192 14.665C38.374 14.665 36.1563 16.8026 36.1563 19.4478C36.1563 22.093 38.374 24.2305 41.0192 24.2305C42.4353 24.2305 43.5041 23.7763 44.3591 22.8945C45.2141 22.0395 45.4813 20.8104 45.4813 19.8485C45.4813 19.5546 45.4546 19.2607 45.4012 19.047H40.9925V19.0737L41.0192 19.0203ZM73.857 20.0356C73.5898 19.3409 72.815 18.0584 71.2118 18.0584C69.6354 18.0584 68.2994 19.3142 68.2994 21.1311C68.2994 22.8678 69.6087 24.2038 71.3454 24.2038C72.7615 24.2038 73.5631 23.3488 73.9104 22.8411L72.8684 22.1464C72.5211 22.6541 72.0401 23.0014 71.3454 23.0014C70.6507 23.0014 70.1698 22.6808 69.8491 22.0662L73.9639 20.3562L73.8303 20.0089L73.857 20.0356ZM69.6621 21.0776C69.6354 19.8753 70.5973 19.2874 71.2653 19.2874C71.7996 19.2874 72.2539 19.5546 72.4142 19.9287L69.6621 21.0776ZM66.3222 24.0702H67.6849V15.0124H66.3222V24.0702ZM64.1045 18.7798H64.0511C63.7572 18.4057 63.1694 18.0851 62.4212 18.0851C60.8715 18.0851 59.4554 19.4478 59.4554 21.1845C59.4554 22.9212 60.8715 24.2572 62.4212 24.2572C63.1426 24.2572 63.7305 23.9366 64.0511 23.5625H64.1045V24.0167C64.1045 25.1924 63.4633 25.8336 62.4747 25.8336C61.6464 25.8336 61.1387 25.2458 60.925 24.7381L59.7493 25.2191C60.0967 26.0207 60.9784 27.036 62.4747 27.036C64.0511 27.036 65.4138 26.1008 65.4138 23.8297V18.2988H64.1313V18.8065L64.1045 18.7798ZM62.5548 23.0281C61.6197 23.0281 60.8448 22.2533 60.8448 21.1578C60.8448 20.0623 61.6197 19.2874 62.5548 19.2874C63.49 19.2874 64.1847 20.089 64.1847 21.1578C64.1847 22.2265 63.4633 23.0281 62.5548 23.0281ZM80.2162 15.0124H76.9831V24.0702H78.3458V20.6501H80.2429C81.7391 20.6501 83.2087 19.5546 83.2087 17.8446C83.2087 16.1079 81.7391 15.0391 80.2429 15.0391L80.2162 15.0124ZM80.2696 19.3676H78.3458V16.2682H80.2696C81.2849 16.2682 81.846 17.0965 81.846 17.8179C81.846 18.5393 81.2582 19.3676 80.2696 19.3676ZM88.6327 18.0851C87.6441 18.0851 86.6287 18.5126 86.228 19.4745L87.4303 19.9821C87.6975 19.4745 88.1517 19.3142 88.6594 19.3142C89.3541 19.3142 90.0755 19.7417 90.0755 20.4898V20.5967C89.835 20.4631 89.3007 20.2493 88.6594 20.2493C87.3769 20.2493 86.0409 20.944 86.0409 22.28C86.0409 23.5091 87.1097 24.2839 88.2853 24.2839C89.1938 24.2839 89.7014 23.8831 89.9954 23.4022H90.0488V24.0969H91.358V20.6234C91.358 19.0203 90.1557 18.1118 88.606 18.1118L88.6327 18.0851ZM88.4724 23.0548C88.0181 23.0548 87.4036 22.8411 87.4036 22.28C87.4036 21.5853 88.1785 21.3181 88.8464 21.3181C89.4343 21.3181 89.7282 21.4517 90.0755 21.612C89.9686 22.4136 89.3007 23.0281 88.4724 23.0548ZM96.1408 18.2988L94.591 22.2265H94.5376L92.9345 18.2988H91.4916L93.8963 23.803L92.507 26.849H93.9231L97.637 18.2988H96.1408ZM83.9568 24.0969H85.3195V15.0391H83.9568V24.0969Z" fill="white"/>
<path fill-rule="evenodd" clip-rule="evenodd" d="M13.9495 7.69699C13.7357 7.91075 13.6288 8.25809 13.6288 8.71232V24.7438C13.6288 25.198 13.7624 25.5454 13.9762 25.7591L14.0296 25.8125L23.0073 16.8349V16.6212L14.0296 7.64355L13.9762 7.69699H13.9495Z" fill="url(#paint0_linear_63_2543)"/>
<path fill-rule="evenodd" clip-rule="evenodd" d="M25.9722 19.7994L22.9796 16.8069V16.5931L25.9722 13.6006L26.0256 13.6273L29.5792 15.6312C30.5946 16.1923 30.5946 17.1542 29.5792 17.7153L26.0256 19.7193L25.9722 19.746V19.7994Z" fill="url(#paint1_linear_63_2543)"/>
<path fill-rule="evenodd" clip-rule="evenodd" d="M26.0512 19.8302L23.0052 16.7842L13.9741 25.8152C14.2948 26.1626 14.8559 26.216 15.4704 25.8687L26.0512 19.8569V19.8302Z" fill="url(#paint2_linear_63_2543)"/>
<path fill-rule="evenodd" clip-rule="evenodd" d="M26.0512 13.6797L15.4704 7.66794C14.8559 7.3206 14.2948 7.37403 13.9741 7.72138L23.0052 16.7524L26.0512 13.7065V13.6797Z" fill="url(#paint3_linear_63_2543)"/>
<path fill-rule="evenodd" clip-rule="evenodd" d="M25.971 19.7578L15.4704 25.7429C14.8826 26.0902 14.3482 26.0635 14.0276 25.7429L13.9741 25.7963L14.0276 25.8498C14.3749 26.1437 14.8826 26.1704 15.4704 25.8498L26.0512 19.838L25.971 19.7845V19.7578Z" fill="black" fill-opacity="0.2"/>
<path fill-rule="evenodd" clip-rule="evenodd" d="M29.589 17.7193L25.9819 19.7767L26.0353 19.8302L29.589 17.8262C30.0966 17.5323 30.3371 17.1582 30.3371 16.7842C30.3104 17.1315 30.0432 17.4522 29.589 17.7193Z" fill="black" fill-opacity="0.121569"/>
<path fill-rule="evenodd" clip-rule="evenodd" d="M15.4448 7.79037L29.5792 15.8061C30.0334 16.0733 30.3006 16.3939 30.3273 16.7413C30.3273 16.3672 30.0869 15.9931 29.5792 15.6992L15.4448 7.6835C14.4295 7.09567 13.6012 7.57662 13.6012 8.75226V8.85914C13.6012 7.71021 14.4295 7.22927 15.4448 7.79037Z" fill="white" fill-opacity="0.25098"/>
<defs>
<linearGradient id="paint0_linear_63_2543" x1="82.9382" y1="-8.20088" x2="82.8313" y2="-8.17416" gradientUnits="userSpaceOnUse">
<stop stop-color="#00A0FF"/>
<stop offset="0.0117647" stop-color="#00A1FF"/>
<stop offset="0.258824" stop-color="#00BEFF"/>
<stop offset="0.509804" stop-color="#00D2FF"/>
<stop offset="0.760784" stop-color="#00DFFF"/>
<stop offset="1" stop-color="#00E3FF"/>
</linearGradient>
<linearGradient id="paint1_linear_63_2543" x1="79.8112" y1="-9.32441" x2="79.5974" y2="-9.32441" gradientUnits="userSpaceOnUse">
<stop stop-color="#FFE000"/>
<stop offset="0.411765" stop-color="#FFBD00"/>
<stop offset="0.780392" stop-color="#FFA500"/>
<stop offset="1" stop-color="#FF9C00"/>
</linearGradient>
<linearGradient id="paint2_linear_63_2543" x1="83.9248" y1="-8.38523" x2="83.8713" y2="-8.27835" gradientUnits="userSpaceOnUse">
<stop stop-color="#FF3A44"/>
<stop offset="1" stop-color="#C31162"/>
</linearGradient>
<linearGradient id="paint3_linear_63_2543" x1="83.8713" y1="-8.52384" x2="83.9248" y2="-8.4704" gradientUnits="userSpaceOnUse">
<stop stop-color="#32A071"/>
<stop offset="0.0705882" stop-color="#2DA771"/>
<stop offset="0.470588" stop-color="#15CF74"/>
<stop offset="0.8" stop-color="#06E775"/>
<stop offset="1" stop-color="#00F076"/>
</linearGradient>
</defs>
</svg>
