<svg width="18" height="16" viewBox="0 0 18 16" fill="none" xmlns="http://www.w3.org/2000/svg">
<path fill-rule="evenodd" clip-rule="evenodd" d="M-8.15559e-06 1H12.6312V4.94791H14.999V15.5748L11.4258 13.0712H3.21597V10.1034L-0.0010376 12.3568V1L-8.15559e-06 1ZM3.217 9.1398V4.94791H11.8417V1.78958H0.788544V10.8404L3.21597 9.1398H3.217ZM4.00658 12.2817V5.73646H14.2114V14.0574L11.677 12.2817H4.00658Z" fill="black"/>
<circle cx="14.5" cy="3.5" r="3.5" fill="#F74A4A"/>
<path d="M12.032 2.2V2.548H12.664V5H13.06V2.2H12.032ZM16.1085 3.968H15.5765V3.36H15.2005V3.968H14.1245L15.4965 2.2H15.0645L13.6325 4.032V4.312H15.1885V5H15.5765V4.312H16.1085V3.968Z" fill="white"/>
</svg>
