<svg width="112" height="35" viewBox="0 0 112 35" fill="none" xmlns="http://www.w3.org/2000/svg">
<path d="M91.9691 0H19.1638C8.57994 0 0 7.64465 0 17.0748C0 26.5049 8.57994 34.1496 19.1638 34.1496H91.9691C102.553 34.1496 111.133 26.5049 111.133 17.0748C111.133 7.64465 102.553 0 91.9691 0Z" fill="black"/>
<path fill-rule="evenodd" clip-rule="evenodd" d="M32.7391 17.8879H31.0299V16.2995H32.7391C34.5346 16.2995 36.0021 14.832 36.0021 13.0365C36.0021 11.2409 34.5346 9.77344 32.7391 9.77344C30.9436 9.77344 29.4761 11.2409 29.4761 13.0365C29.4761 13.3645 29.4761 14.1414 29.4761 14.7457H27.646C27.646 14.1414 27.646 13.3645 27.646 13.0365C27.646 11.2409 26.1785 9.77344 24.383 9.77344C22.5874 9.77344 21.1199 11.2409 21.1199 13.0365C21.1199 14.832 22.5874 16.2995 24.383 16.2995H26.0922V17.8879H24.383C22.5874 17.8879 21.1199 19.3553 21.1199 21.1509C21.1199 22.9464 22.5874 24.4139 24.383 24.4139C26.1785 24.4139 27.646 22.9464 27.646 21.1509C27.646 20.8228 27.646 20.0459 27.646 19.4417H29.4761C29.4761 20.0459 29.4761 20.8228 29.4761 21.1509C29.4761 22.9464 30.9436 24.4139 32.7391 24.4139C34.5346 24.4139 36.0021 22.9464 36.0021 21.1509C36.0021 19.3553 34.5346 17.8879 32.7391 17.8879ZM32.7391 11.3273C33.6886 11.3273 34.4483 12.0869 34.4483 13.0365C34.4483 13.986 33.6886 14.7457 32.7391 14.7457H31.0299C31.0299 14.1414 31.0299 13.3645 31.0299 13.0365C31.0299 12.0869 31.7895 11.3273 32.7391 11.3273ZM32.7391 22.8601C31.7895 22.8601 31.0299 22.1004 31.0299 21.1509C31.0299 20.8228 31.0299 20.0459 31.0299 19.4417H32.7391C33.6886 19.4417 34.4483 20.2013 34.4483 21.1509C34.4483 22.1004 33.6886 22.8601 32.7391 22.8601ZM29.4761 16.2995V17.8879H27.646V16.2995H29.4761ZM24.383 19.4417H26.0922V19.7179C26.0922 20.2531 26.0922 20.8574 26.0922 21.1509C26.0922 22.1004 25.3325 22.8601 24.383 22.8601C23.4334 22.8601 22.6738 22.1004 22.6738 21.1509C22.6738 20.2013 23.4334 19.4417 24.383 19.4417ZM24.383 11.3273C25.3325 11.3273 26.0922 12.0869 26.0922 13.0365C26.0922 13.3127 26.0922 13.917 26.0922 14.4694V14.7629H24.383C23.4334 14.7629 22.6738 14.0033 22.6738 13.0537C22.6738 12.1042 23.4334 11.3445 24.383 11.3445V11.3273Z" fill="white"/>
<path d="M44.5006 12.252C44.1208 12.252 43.7928 12.1139 43.5338 11.8549C43.2749 11.596 43.1367 11.2507 43.1367 10.8708C43.1367 10.4737 43.2749 10.1457 43.5338 9.88675C43.7928 9.62777 44.1208 9.48966 44.5006 9.48966C44.8114 9.48966 45.0704 9.57598 45.2776 9.73136C45.502 9.88675 45.6574 10.1285 45.7264 10.4392L46.3134 10.2666C46.2099 9.85222 45.9854 9.52419 45.6574 9.28248C45.3294 9.04077 44.9323 8.91992 44.4834 8.91992C43.9309 8.91992 43.482 9.10983 43.1022 9.48966C42.7224 9.86948 42.5325 10.3356 42.5325 10.8708C42.5325 11.4233 42.7224 11.8895 43.1022 12.2693C43.482 12.6491 43.9482 12.839 44.4834 12.839C44.9323 12.839 45.3294 12.7182 45.6574 12.4765C45.9854 12.2347 46.2099 11.8895 46.3134 11.4578L45.7264 11.337C45.6401 11.6477 45.4847 11.8895 45.2776 12.0448C45.0531 12.2002 44.7941 12.2865 44.5006 12.2865V12.252Z" fill="white"/>
<path d="M48.2848 9.77344C47.8705 9.77344 47.5079 9.91156 47.2144 10.1878C46.9209 10.464 46.7828 10.8093 46.7828 11.2409C46.7828 11.6726 46.9209 12.0178 47.2144 12.2941C47.5079 12.5703 47.8532 12.7084 48.2848 12.7084C48.6992 12.7084 49.0445 12.5703 49.338 12.2941C49.6315 12.0178 49.7696 11.6726 49.7696 11.2409C49.7696 10.8093 49.6315 10.464 49.338 10.1878C49.0445 9.91156 48.6992 9.77344 48.2848 9.77344ZM48.2848 12.1732C48.0259 12.1732 47.8187 12.0869 47.6288 11.9143C47.4389 11.7416 47.3525 11.4999 47.3525 11.2237C47.3525 10.9474 47.4389 10.723 47.6288 10.5331C47.8187 10.3604 48.0259 10.2741 48.2848 10.2741C48.5265 10.2741 48.751 10.3604 48.9236 10.5331C49.1135 10.7057 49.1999 10.9474 49.1999 11.2237C49.1999 11.4999 49.1135 11.7416 48.9236 11.9143C48.7337 12.0869 48.5265 12.1732 48.2848 12.1732Z" fill="white"/>
<path d="M51.9755 9.77344C51.5611 9.77344 51.2503 9.91155 51.0086 10.1878V9.8425H50.4216V12.6221H51.0086V11.3445C51.0086 10.9992 51.0777 10.7403 51.2331 10.5676C51.3885 10.395 51.5784 10.3086 51.8373 10.3086C52.0272 10.3086 52.1999 10.3777 52.3207 10.5158C52.4416 10.6539 52.5107 10.8438 52.5107 11.0683V12.6394H53.0977V10.9647C53.0977 10.6194 52.9941 10.3259 52.7869 10.1187C52.5797 9.89429 52.3207 9.7907 51.9755 9.7907V9.77344Z" fill="white"/>
<path d="M55.5566 12.1522C55.4012 12.2558 55.2458 12.3076 55.0904 12.3076C54.9523 12.3076 54.8314 12.2558 54.7624 12.1694C54.6761 12.0831 54.6415 11.945 54.6415 11.7896V10.4775H55.5911V9.99409H54.6415V9.13086H54.0545V9.99409H53.4503V10.4775H54.0545V11.8242C54.0545 12.1522 54.1408 12.4112 54.3308 12.5838C54.5034 12.7564 54.7624 12.8428 55.0731 12.8428C55.2976 12.8428 55.522 12.7737 55.7637 12.6356L55.5911 12.1522H55.5566Z" fill="white"/>
<path d="M56.5398 8.70898C56.4362 8.70898 56.3499 8.74351 56.2635 8.81257C56.1945 8.88163 56.1599 8.96796 56.1599 9.07154C56.1599 9.17513 56.1945 9.26145 56.2635 9.33051C56.3326 9.39957 56.4189 9.4341 56.5398 9.4341C56.6434 9.4341 56.7297 9.39957 56.7987 9.33051C56.8678 9.26145 56.9023 9.17513 56.9023 9.07154C56.9023 8.96796 56.8678 8.88163 56.7987 8.81257C56.7297 8.74351 56.6434 8.70898 56.5398 8.70898ZM56.8333 12.6971V9.91751H56.2463V12.6971H56.8333Z" fill="white"/>
<path d="M59.3085 9.77344C58.8941 9.77344 58.5833 9.91155 58.3416 10.1878V9.8425H57.7546V12.6221H58.3416V11.3445C58.3416 10.9992 58.4107 10.7403 58.5661 10.5676C58.7215 10.395 58.9114 10.3086 59.1703 10.3086C59.3603 10.3086 59.5329 10.3777 59.6538 10.5158C59.7746 10.6539 59.8437 10.8438 59.8437 11.0683V12.6394H60.4307V10.9647C60.4307 10.6194 60.3271 10.3259 60.1199 10.1187C59.9127 9.89429 59.6538 9.7907 59.3085 9.7907V9.77344Z" fill="white"/>
<path d="M63.8309 9.98438H63.2439V11.262C63.2439 11.6073 63.1749 11.8662 63.0195 12.0389C62.8814 12.2115 62.6742 12.2978 62.4152 12.2978C62.2081 12.2978 62.0527 12.2288 61.9318 12.0907C61.811 11.9526 61.7419 11.7626 61.7419 11.5382V9.98438H61.1549V11.6591C61.1549 12.0043 61.2585 12.2978 61.4657 12.5223C61.6728 12.7467 61.9318 12.8503 62.2771 12.8503C62.6742 12.8503 63.0022 12.7122 63.2439 12.436V12.7813H63.8309V10.0016V9.98438Z" fill="white"/>
<path d="M67.3075 11.1891C67.2903 10.7748 67.1522 10.4468 66.8759 10.1705C66.617 9.91156 66.2889 9.77344 65.9091 9.77344C65.512 9.77344 65.1667 9.91155 64.8905 10.1878C64.6143 10.464 64.4761 10.8093 64.4761 11.2582C64.4761 11.6898 64.6143 12.0351 64.8905 12.3113C65.1667 12.5876 65.4948 12.7257 65.8918 12.7257C66.2026 12.7257 66.4788 12.6566 66.7205 12.5013C66.9623 12.3459 67.1349 12.1387 67.2385 11.8452L66.7205 11.7416C66.5652 12.0696 66.2889 12.225 65.9091 12.225C65.7019 12.225 65.512 12.156 65.3566 12.0006C65.2012 11.8452 65.0977 11.6553 65.0804 11.3963H67.3421V11.1891H67.3075ZM65.9091 10.2914C66.1163 10.2914 66.2717 10.3432 66.427 10.464C66.5652 10.5849 66.6688 10.7403 66.7033 10.9647H65.0631C65.0977 10.7575 65.2013 10.5849 65.3739 10.464C65.5465 10.3432 65.7192 10.2914 65.9091 10.2914Z" fill="white"/>
<path d="M70.5738 9.77344C70.1595 9.77344 69.7969 9.91156 69.5034 10.1878C69.2099 10.464 69.0718 10.8093 69.0718 11.2409C69.0718 11.6726 69.2099 12.0178 69.5034 12.2941C69.7969 12.5703 70.1422 12.7084 70.5738 12.7084C70.9882 12.7084 71.3335 12.5703 71.627 12.2941C71.9205 12.0178 72.0586 11.6726 72.0586 11.2409C72.0586 10.8093 71.9205 10.464 71.627 10.1878C71.3335 9.91156 70.9882 9.77344 70.5738 9.77344ZM70.5738 12.1732C70.3148 12.1732 70.1077 12.0869 69.9178 11.9143C69.7278 11.7416 69.6415 11.4999 69.6415 11.2237C69.6415 10.9474 69.7278 10.723 69.9178 10.5331C70.1077 10.3604 70.3148 10.2741 70.5738 10.2741C70.8155 10.2741 71.04 10.3604 71.2126 10.5331C71.4025 10.7057 71.4888 10.9474 71.4888 11.2237C71.4888 11.4999 71.4025 11.7416 71.2126 11.9143C71.0227 12.0869 70.8155 12.1732 70.5738 12.1732Z" fill="white"/>
<path d="M74.2644 9.77344C73.8501 9.77344 73.5393 9.91155 73.2976 10.1878V9.8425H72.7106V12.6221H73.2976V11.3445C73.2976 10.9992 73.3667 10.7403 73.522 10.5676C73.6774 10.395 73.8673 10.3086 74.1263 10.3086C74.3162 10.3086 74.4889 10.3777 74.6097 10.5158C74.7306 10.6539 74.7996 10.8438 74.7996 11.0683V12.6394H75.3866V10.9647C75.3866 10.6194 75.283 10.3259 75.0759 10.1187C74.8687 9.89429 74.6097 9.7907 74.2644 9.7907V9.77344Z" fill="white"/>
<path d="M50.3084 22.6881L52.432 15.2988H50.5501L49.2553 19.9603L47.9777 15.2988H46.2512L44.9736 19.9603L43.696 15.2988H41.8142L43.9377 22.6881H45.8714L47.1317 18.1302L48.3575 22.6881H50.3084Z" fill="white"/>
<path d="M58.0558 20.38V19.9311C58.0213 18.1183 56.761 16.9961 55.1899 16.9961C53.5843 16.9961 52.2549 18.1874 52.2549 19.9311C52.2549 21.6921 53.5843 22.8661 55.1899 22.8661C56.4675 22.8661 57.4688 22.2964 57.935 21.1396L56.3639 20.8116C56.0704 21.3468 55.587 21.4504 55.1899 21.4504C54.5856 21.4504 54.1367 21.036 53.9986 20.38H58.0558ZM55.1899 18.4291C55.6906 18.4291 56.1394 18.7053 56.3121 19.3096H54.0331C54.2058 18.7398 54.7065 18.4291 55.2071 18.4291H55.1899Z" fill="white"/>
<path d="M62.4902 17.0303C61.7651 17.0303 61.1953 17.2547 60.7637 17.6345V14.2334H59.0027V22.7449H60.7637V22.296C61.1953 22.6758 61.7651 22.9003 62.4902 22.9003C63.9577 22.9003 65.2007 21.7263 65.2007 19.9653C65.2007 18.2215 63.9577 17.0303 62.4902 17.0303ZM62.1276 21.3983C61.4025 21.3983 60.7637 20.8285 60.7637 19.9653C60.7637 19.1193 61.4025 18.5323 62.1276 18.5323C62.9045 18.5323 63.457 19.1193 63.457 19.9653C63.457 20.8285 62.8873 21.3983 62.1276 21.3983Z" fill="white"/>
<path d="M74.1303 22.7054H76.0812L72.9908 15.2988H71.1262L68.0359 22.7054H69.9868L70.5047 21.3587H73.6124L74.1303 22.7054ZM72.0585 17.3533L73.0081 19.7877H71.1262L72.0585 17.3533Z" fill="white"/>
<path d="M80.1835 16.9961C79.4584 16.9961 78.8887 17.2205 78.457 17.6004V17.1515H76.696V25.3522H78.457V22.2618C78.8887 22.6417 79.4584 22.8661 80.1835 22.8661C81.651 22.8661 82.8941 21.6921 82.8941 19.9311C82.8941 18.1874 81.651 16.9961 80.1835 16.9961ZM79.821 21.3641C79.0958 21.3641 78.457 20.7943 78.457 19.9311C78.457 19.0851 79.0958 18.4981 79.821 18.4981C80.5979 18.4981 81.1503 19.0851 81.1503 19.9311C81.1503 20.7943 80.5806 21.3641 79.821 21.3641Z" fill="white"/>
<path d="M87.303 16.9961C86.5779 16.9961 86.0081 17.2205 85.5765 17.6004V17.1515H83.8155V25.3522H85.5765V22.2618C86.0081 22.6417 86.5779 22.8661 87.303 22.8661C88.7705 22.8661 90.0136 21.6921 90.0136 19.9311C90.0136 18.1874 88.7705 16.9961 87.303 16.9961ZM86.9404 21.3641C86.2153 21.3641 85.5765 20.7943 85.5765 19.9311C85.5765 19.0851 86.2153 18.4981 86.9404 18.4981C87.7173 18.4981 88.2698 19.0851 88.2698 19.9311C88.2698 20.7943 87.7001 21.3641 86.9404 21.3641Z" fill="white"/>
</svg>
